<?xml version="1.0" encoding="UTF-8"?>
<svg width="32px" height="32px" viewBox="0 0 32 32" version="1.1" xmlns="http://www.w3.org/2000/svg" xmlns:xlink="http://www.w3.org/1999/xlink">
    <!-- Generator: Sketch 49.2 (51160) - http://www.bohemiancoding.com/sketch -->
    <title>access_denied</title>
    <desc>Created with Sketch.</desc>
    <defs>
        <linearGradient x1="25.4166667%" y1="79.53125%" x2="77.890625%" y2="17.4934896%" id="linearGradient-1">
            <stop stop-color="#FE3E67" offset="0%"></stop>
            <stop stop-color="#FE4B57" offset="26.3492506%"></stop>
            <stop stop-color="#FE5A47" offset="52.8858418%"></stop>
            <stop stop-color="#FF4F54" offset="76.5545281%"></stop>
            <stop stop-color="#FE633D" offset="100%"></stop>
        </linearGradient>
        <filter x="-131.2%" y="-99.1%" width="375.0%" height="375.0%" filterUnits="objectBoundingBox" id="filter-2">
            <feOffset dx="1" dy="7" in="SourceAlpha" result="shadowOffsetOuter1"></feOffset>
            <feGaussianBlur stdDeviation="7" in="shadowOffsetOuter1" result="shadowBlurOuter1"></feGaussianBlur>
            <feColorMatrix values="0 0 0 0 0   0 0 0 0 0   0 0 0 0 0  0 0 0 0.2 0" type="matrix" in="shadowBlurOuter1" result="shadowMatrixOuter1"></feColorMatrix>
            <feMerge>
                <feMergeNode in="shadowMatrixOuter1"></feMergeNode>
                <feMergeNode in="SourceGraphic"></feMergeNode>
            </feMerge>
        </filter>
        <linearGradient x1="66.7382812%" y1="14.3229167%" x2="27.3626309%" y2="97.752889%" id="linearGradient-3">
            <stop stop-color="#FFFFFF" offset="0%"></stop>
            <stop stop-color="#FFE7E7" offset="100%"></stop>
        </linearGradient>
        <linearGradient x1="50%" y1="0%" x2="50%" y2="97.660236%" id="linearGradient-4">
            <stop stop-color="#FFFFFF" offset="0%"></stop>
            <stop stop-color="#FFEEEE" offset="100%"></stop>
        </linearGradient>
    </defs>
    <g id="access_denied" stroke="none" stroke-width="1" fill="none" fill-rule="evenodd">
        <g id="Components-/-Z-Symbols-/-Icons-/-Large-/-Access-Denied">
            <circle id="BG" fill="url(#linearGradient-1)" cx="16" cy="16" r="16"></circle>
            <g id="access-denied" filter="url(#filter-2)" stroke-width="1" transform="translate(6.933333, 6.933333)" fill="url(#linearGradient-3)" stroke="url(#linearGradient-4)">
                <path d="M9.33333333,0 C4.1868642,0 0,4.1868642 0,9.33333333 C0,14.4798025 4.1868642,18.6666667 9.33333333,18.6666667 C14.4798025,18.6666667 18.6666667,14.4798025 18.6666667,9.33333333 C18.6666667,4.1868642 14.4798025,0 9.33333333,0 Z M9.33333333,1.38271605 C11.3327407,1.38271605 13.1579259,2.13076543 14.5565432,3.35377778 L3.35377778,14.5565432 C2.13076543,13.1579259 1.38271605,11.3334321 1.38271605,9.33333333 C1.38271605,4.9494321 4.9494321,1.38271605 9.33333333,1.38271605 Z M9.33333333,17.2839506 C7.44661728,17.2839506 5.71269136,16.6202469 4.34795062,15.5175309 L15.5175309,4.34795062 C16.6202469,5.71269136 17.2839506,7.44661728 17.2839506,9.33333333 C17.2839506,13.7172346 13.7172346,17.2839506 9.33333333,17.2839506 Z" id="Shape" fill-rule="nonzero"></path>
            </g>
        </g>
    </g>
</svg>