<?xml version="1.0" encoding="UTF-8"?>
<svg width="310px" height="220px" viewBox="0 0 310 220" version="1.1" xmlns="http://www.w3.org/2000/svg" xmlns:xlink="http://www.w3.org/1999/xlink">
    <!-- Generator: Sketch 49.3 (51167) - http://www.bohemiancoding.com/sketch -->
    <title>UMS error_Illsutration</title>
    <desc>Created with Sketch.</desc>
    <defs>
        <linearGradient x1="42.7196818%" y1="-21.9957086%" x2="42.7196824%" y2="63.4436556%" id="linearGradient-1">
            <stop stop-color="#FFA59B" offset="0%"></stop>
            <stop stop-color="#FF6C62" offset="100%"></stop>
        </linearGradient>
        <ellipse id="path-2" cx="26.459854" cy="14.6465753" rx="7.11678832" ry="7.05205479"></ellipse>
        <ellipse id="path-3" cx="26.459854" cy="48.2794521" rx="7.11678832" ry="7.05205479"></ellipse>
        <ellipse id="path-4" cx="26.459854" cy="82.9972603" rx="7.11678832" ry="7.05205479"></ellipse>
        <ellipse id="path-5" cx="26.459854" cy="117.715068" rx="7.11678832" ry="7.05205479"></ellipse>
        <linearGradient x1="85.4393642%" y1="20.7239732%" x2="0%" y2="20.7239738%" id="linearGradient-6">
            <stop stop-color="#FFA59B" offset="0%"></stop>
            <stop stop-color="#FF6C62" offset="100%"></stop>
        </linearGradient>
        <ellipse id="path-7" cx="27.4681495" cy="14.7360116" rx="7.16241027" ry="7.09511668"></ellipse>
        <ellipse id="path-8" cx="27.4681495" cy="48.5742603" rx="7.16241027" ry="7.09511668"></ellipse>
        <ellipse id="path-9" cx="27.4681495" cy="83.5040655" rx="7.16241027" ry="7.09511668"></ellipse>
        <ellipse id="path-10" cx="27.4681495" cy="118.433871" rx="7.16241027" ry="7.09511668"></ellipse>
    </defs>
    <g id="App-Name" stroke="none" stroke-width="1" fill="none" fill-rule="evenodd">
        <g id="UMS-error_Illsutration" transform="translate(44.000000, 21.000000)">
            <g id="Group-8" transform="translate(66.000000, 36.000000)">
                <polygon id="Rectangle-20-Copy" fill="url(#linearGradient-1)" points="1.45985401 24.230137 90.8333333 24.230137 90.8333333 108.131507 6.44482896 108.131507"></polygon>
                <rect id="Rectangle-20-Copy" stroke="#102D5C" stroke-width="4" x="8.93430657" y="26.230137" width="82.4963504" height="79.9013699"></rect>
                <rect id="Rectangle-19-Copy-4" fill="url(#linearGradient-1)" x="0" y="0" width="96.8190272" height="28.9315068" rx="10"></rect>
                <rect id="Rectangle-19-Copy-4" stroke="#102D5C" stroke-width="4" x="2" y="2" width="96" height="24.9315068" rx="8"></rect>
                <rect id="Rectangle-19-Copy-5" fill="url(#linearGradient-1)" x="0" y="34.3561644" width="96.8190272" height="28.9315068" rx="10"></rect>
                <rect id="Rectangle-19-Copy-5" stroke="#102D5C" stroke-width="4" x="2" y="36.3561644" width="96" height="24.9315068" rx="8"></rect>
                <rect id="Rectangle-19-Copy-6" fill="url(#linearGradient-1)" x="0" y="68.7123288" width="96.8190272" height="28.9315068" rx="10"></rect>
                <rect id="Rectangle-19-Copy-6" stroke="#102D5C" stroke-width="4" x="2" y="70.7123288" width="96" height="24.9315068" rx="10"></rect>
                <rect id="Rectangle-19-Copy-7" fill="url(#linearGradient-1)" x="0" y="103.068493" width="96.8190272" height="28.9315068" rx="10"></rect>
                <rect id="Rectangle-19-Copy-7" stroke="#102D5C" stroke-width="4" x="2" y="105.068493" width="96" height="24.9315068" rx="8"></rect>
                <g id="Oval-11">
                    <use fill="#FFFFFF" fill-rule="evenodd" xlink:href="#path-2"></use>
                    <ellipse stroke="#102D5C" stroke-width="3" cx="26.459854" cy="14.6465753" rx="5.61678832" ry="5.55205479"></ellipse>
                </g>
                <g id="Oval-11">
                    <use fill="#FFFFFF" fill-rule="evenodd" xlink:href="#path-3"></use>
                    <ellipse stroke="#102D5C" stroke-width="3" cx="26.459854" cy="48.2794521" rx="5.61678832" ry="5.55205479"></ellipse>
                </g>
                <g id="Oval-11">
                    <use fill="#FFFFFF" fill-rule="evenodd" xlink:href="#path-4"></use>
                    <ellipse stroke="#102D5C" stroke-width="3" cx="26.459854" cy="82.9972603" rx="5.61678832" ry="5.55205479"></ellipse>
                </g>
                <g id="Oval-11">
                    <use fill="#FFFFFF" fill-rule="evenodd" xlink:href="#path-5"></use>
                    <ellipse stroke="#102D5C" stroke-width="3" cx="26.459854" cy="117.715068" rx="5.61678832" ry="5.55205479"></ellipse>
                </g>
            </g>
            <g id="Group-8-Copy" transform="translate(54.000000, 36.000000)">
                <rect id="Rectangle-20-Copy" fill="url(#linearGradient-6)" x="11.1231619" y="24.3780932" width="80.2924557" height="84.4136959"></rect>
                <rect id="Rectangle-20-Copy" stroke="#102D5C" stroke-width="4" x="8.97875873" y="26.3780932" width="83.0508326" height="80.4136959"></rect>
                <rect id="Rectangle-19-Copy-4" fill="url(#linearGradient-6)" x="5.35038169" y="0" width="93.4909646" height="29.108171" rx="10"></rect>
                <rect id="Rectangle-19-Copy-4" stroke="#102D5C" stroke-width="4" x="2" y="2" width="96.6410469" height="25.108171" rx="8"></rect>
                <rect id="Rectangle-19-Copy-5" fill="url(#linearGradient-6)" x="5.35038169" y="34.565953" width="93.4909646" height="29.108171" rx="10"></rect>
                <rect id="Rectangle-19-Copy-5" stroke="#102D5C" stroke-width="4" x="2" y="36.565953" width="96.6410469" height="25.108171" rx="8"></rect>
                <rect id="Rectangle-19-Copy-6" fill="url(#linearGradient-6)" x="5.35038169" y="69.1319061" width="93.4909646" height="29.108171" rx="10"></rect>
                <rect id="Rectangle-19-Copy-6" stroke="#102D5C" stroke-width="4" x="2" y="71.1319061" width="96.6410469" height="25.108171" rx="8"></rect>
                <rect id="Rectangle-19-Copy-7" fill="url(#linearGradient-6)" x="5.35038169" y="103.697859" width="93.4909646" height="29.108171" rx="10"></rect>
                <rect id="Rectangle-19-Copy-7" stroke="#102D5C" stroke-width="4" x="2" y="105.697859" width="96.6410469" height="25.108171" rx="8"></rect>
                <g id="Oval-11">
                    <use fill="#FFFFFF" fill-rule="evenodd" xlink:href="#path-7"></use>
                    <ellipse stroke="#102D5C" stroke-width="3" cx="27.4681495" cy="14.7360116" rx="5.66241027" ry="5.59511668"></ellipse>
                </g>
                <g id="Oval-11">
                    <use fill="#FFFFFF" fill-rule="evenodd" xlink:href="#path-8"></use>
                    <ellipse stroke="#102D5C" stroke-width="3" cx="27.4681495" cy="48.5742603" rx="5.66241027" ry="5.59511668"></ellipse>
                </g>
                <g id="Oval-11">
                    <use fill="#FFFFFF" fill-rule="evenodd" xlink:href="#path-9"></use>
                    <ellipse stroke="#102D5C" stroke-width="3" cx="27.4681495" cy="83.5040655" rx="5.66241027" ry="5.59511668"></ellipse>
                </g>
                <g id="Oval-11">
                    <use fill="#FFFFFF" fill-rule="evenodd" xlink:href="#path-10"></use>
                    <ellipse stroke="#102D5C" stroke-width="3" cx="27.4681495" cy="118.433871" rx="5.66241027" ry="5.59511668"></ellipse>
                </g>
            </g>
            <path d="M195.5,45.3464447 L197.400429,43.4460159 C197.995117,42.851328 198.959296,42.851328 199.553984,43.4460159 C200.148672,44.0407038 200.148672,45.0048833 199.553984,45.5995712 L197.653555,47.5 L199.553984,49.4004288 C200.148672,49.9951167 200.148672,50.9592962 199.553984,51.5539841 C198.959296,52.148672 197.995117,52.148672 197.400429,51.5539841 L195.5,49.6535553 L193.599571,51.5539841 C193.004883,52.148672 192.040704,52.148672 191.446016,51.5539841 C190.851328,50.9592962 190.851328,49.9951167 191.446016,49.4004288 L193.346445,47.5 L191.446016,45.5995712 C190.851328,45.0048833 190.851328,44.0407038 191.446016,43.4460159 C192.040704,42.851328 193.004883,42.851328 193.599571,43.4460159 L195.5,45.3464447 Z" id="Combined-Shape-Copy" fill="#F9AF97"></path>
            <path d="M6.5,89.3506885 L8.40555147,87.445137 C8.99906746,86.851621 9.96134701,86.851621 10.554863,87.445137 C11.148379,88.038653 11.148379,89.0009325 10.554863,89.5944485 L8.64931154,91.5 L10.554863,93.4055515 C11.148379,93.9990675 11.148379,94.961347 10.554863,95.554863 C9.96134701,96.148379 8.99906746,96.148379 8.40555147,95.554863 L6.5,93.6493115 L4.59444853,95.554863 C4.00093254,96.148379 3.03865299,96.148379 2.44513699,95.554863 C1.851621,94.961347 1.851621,93.9990675 2.44513699,93.4055515 L4.35068846,91.5 L2.44513699,89.5944485 C1.851621,89.0009325 1.851621,88.038653 2.44513699,87.445137 C3.03865299,86.851621 4.00093254,86.851621 4.59444853,87.445137 L6.5,89.3506885 Z" id="Combined-Shape-Copy-2" fill="#F9AF97"></path>
            <ellipse id="Oval-2" fill="#FFD571" cx="144.5" cy="9" rx="5.5" ry="5"></ellipse>
            <ellipse id="Oval-2-Copy" fill="#FFD571" cx="25.5" cy="122" rx="5.5" ry="5"></ellipse>
            <path d="M207.313945,130.360493 C206.683871,130.835964 205.781036,130.719251 205.297406,130.099806 C204.813776,129.480361 204.932492,128.592756 205.562566,128.117285 L211.018607,124 L215.886955,127.477777 L219.692261,124.638357 C220.324954,124.166258 221.227131,124.287793 221.70733,124.909812 C222.187529,125.531831 222.063909,126.418789 221.431216,126.890888 L215.924307,131 L211.065789,127.529244 L207.313945,130.360493 Z" id="Path-3" fill="#102D5C" fill-rule="nonzero"></path>
            <circle id="Oval-3" stroke="#102D5C" stroke-width="3" cx="202" cy="86" r="4"></circle>
            <circle id="Oval-3-Copy" stroke="#102D5C" stroke-width="3" cx="16" cy="158" r="4"></circle>
            <rect id="Rectangle-7" fill="#102D5C" x="132" y="174" width="8" height="4" rx="2"></rect>
            <rect id="Rectangle-7-Copy" fill="#102D5C" x="147" y="174" width="45" height="4" rx="2"></rect>
            <rect id="Rectangle-6-Copy" fill="#FFFFFF" transform="translate(132.000000, 159.000000) rotate(90.000000) translate(-132.000000, -159.000000) " x="130" y="147" width="4" height="24" rx="2"></rect>
            <rect id="Rectangle-6-Copy" fill="#FFFFFF" transform="translate(132.000000, 159.000000) rotate(90.000000) translate(-132.000000, -159.000000) " x="130" y="147" width="4" height="24" rx="2"></rect>
            <rect id="Rectangle-6-Copy-3" fill="#FFFFFF" x="144" y="43" width="4" height="12" rx="2"></rect>
            <path d="M166.577298,91.5156009 L193.42507,145.211146 C194.413027,147.18706 193.61213,149.589752 191.636216,150.577709 C191.080794,150.85542 190.468342,151 189.847361,151 L136.151816,151 C133.942677,151 132.151816,149.209139 132.151816,147 C132.151816,146.37902 132.296397,145.766567 132.574108,145.211146 L159.42188,91.5156009 C160.409837,89.5396869 162.812529,88.7387895 164.788443,89.7267465 C165.562553,90.1138013 166.190243,90.7414913 166.577298,91.5156009 Z" id="Triangle" stroke="#102D5C" stroke-width="4" fill="#F8E203" stroke-linecap="round" stroke-linejoin="round"></path>
            <path d="M166.577298,91.5156009 L193.42507,145.211146 C194.413027,147.18706 193.61213,149.589752 191.636216,150.577709 C191.080794,150.85542 190.468342,151 189.847361,151 L136.151816,151 C133.942677,151 132.151816,149.209139 132.151816,147 C132.151816,146.37902 132.296397,145.766567 132.574108,145.211146 L159.42188,91.5156009 C160.409837,89.5396869 162.812529,88.7387895 164.788443,89.7267465 C165.562553,90.1138013 166.190243,90.7414913 166.577298,91.5156009 Z" id="Triangle" stroke="#102D5C" stroke-width="4" fill="#F8E203" stroke-linecap="round" stroke-linejoin="round"></path>
            <path d="M160.81457,128.396301 L160.178808,119.221268 C160.059602,117.433501 160,116.150158 160,115.371202 C160,114.311311 160.288077,113.484481 160.864238,112.890687 C161.4404,112.296893 162.198671,112 163.139073,112 C164.278151,112 165.039733,112.379895 165.423841,113.139696 C165.807949,113.899497 166,114.994489 166,116.424703 C166,117.267508 165.953643,118.123069 165.860927,118.991413 L165.006623,128.43461 C164.913907,129.55835 164.715233,130.420296 164.410596,131.020476 C164.105959,131.620655 163.602653,131.92074 162.900662,131.92074 C162.185427,131.92074 161.688743,131.630232 161.410596,131.049207 C161.132449,130.468183 160.933775,129.58389 160.81457,128.396301 Z M163.019868,141 C162.211916,141 161.506626,140.747801 160.903974,140.243395 C160.301321,139.738989 160,139.03347 160,138.126816 C160,137.335091 160.288077,136.661496 160.864238,136.106011 C161.4404,135.550526 162.145691,135.272787 162.980132,135.272787 C163.814574,135.272787 164.526487,135.550526 165.115894,136.106011 C165.705301,136.661496 166,137.335091 166,138.126816 C166,139.0207 165.70199,139.723027 165.10596,140.233818 C164.509931,140.744608 163.814574,141 163.019868,141 Z" id="!" fill="#102D5C"></path>
            <path d="M66.8773496,32.7017869 C68.6998795,33.0022874 70.0251241,34.5439588 69.9996386,36.3616896 L69.9996386,41.6383104 C69.9996386,43.4560412 68.674394,44.9977126 66.8518642,45.2982131 L62.570464,46.0001123 C62.1375295,47.4040673 61.5513637,48.7701071 60.8501946,50.0858547 L63.3730971,53.570596 C64.4433277,55.0499111 64.2654072,57.0677145 62.9656481,58.3461736 L59.1683127,62.0812798 C58.4545601,62.783179 57.5114384,63.171887 56.5046029,63.171887 C55.7150311,63.171887 54.9503076,62.9331159 54.3131708,62.4820517 L50.7834328,60.0004935 C49.4581882,60.6901721 48.0693892,61.2538849 46.6289821,61.6925718 L45.9029647,65.90381 C45.5974576,67.696473 44.0301011,69 42.1820857,69 L36.8044916,69 C34.9571134,69 33.3897568,67.696473 33.0836126,65.90381 L32.3700194,61.6925718 C30.9812204,61.2667321 29.6304903,60.7274605 28.3436332,60.0634764 L24.7629243,62.5702591 C24.1257874,63.0213233 23.3734881,63.259311 22.5839163,63.259311 C21.5772402,63.259311 20.6339591,62.8707597 19.9203658,62.1687039 L16.1230304,58.4337544 C14.8106878,57.1551385 14.6451915,55.1373351 15.7154221,53.6581767 L18.2260598,50.2241978 C17.5123072,48.9206708 16.9263006,47.5540042 16.4801456,46.1506759 L12.1477745,45.4235523 C10.3252446,45.1225817 9,43.5809103 9,41.7638062 L9,36.4870287 C9,34.6694546 10.3252446,33.1277832 12.1477745,32.826656 L16.3780444,32.1253835 C16.8111382,30.7085813 17.3718186,29.3425414 18.0729876,28.0266372 L15.5244403,24.5046075 C14.4535726,23.0254491 14.6321302,21.0076457 15.9320486,19.7290298 L19.7422861,15.9940803 C20.4429773,15.2920245 21.3986826,14.9034732 22.4053587,14.9034732 C23.1955677,14.9034732 23.9602912,15.1414609 24.597428,15.5925251 L28.1016805,18.0748666 C29.4262879,17.3728108 30.8157241,16.7964075 32.2430698,16.3575638 L32.9816707,12.09619 C33.2876557,10.303527 34.8550122,9 36.7030276,9 L42.0677196,9 C43.9149386,9 45.4822952,10.303527 45.7884394,12.09619 L46.5020326,16.2571358 C47.9929328,16.6959795 49.4327027,17.2847601 50.8089183,17.9995065 L54.3512397,15.5179483 C54.9883765,15.0662574 55.7405166,14.828113 56.5300884,14.828113 C57.5369238,14.828113 58.4802049,15.216821 59.1937981,15.9187202 L62.9911336,19.6538264 C64.3033169,20.9322855 64.4688132,22.9500889 63.3987419,24.4292474 L60.8756801,27.901298 C61.576212,29.204825 62.1499537,30.5708649 62.5959495,31.9870405 L66.8773496,32.7017869 Z M39.2601215,25.097561 C31.0509593,25.097561 24.3819827,31.6566605 24.3819827,39.7319729 C24.3819827,47.8067541 31.0509593,54.3658537 39.2601215,54.3658537 C47.4698238,54.3658537 54.1380803,47.8067541 54.1380803,39.7319729 C54.1380803,31.6566605 47.4698238,25.097561 39.2601215,25.097561 Z" id="Combined-Shape" fill="url(#linearGradient-6)" transform="translate(39.500000, 39.000000) rotate(-13.000000) translate(-39.500000, -39.000000) "></path>
            <path d="M63.8773496,30.7017869 C65.6998795,31.0022874 67.0251241,32.5439588 66.9996386,34.3616896 L66.9996386,39.6383104 C66.9996386,41.4560412 65.674394,42.9977126 63.8518642,43.2982131 L59.570464,44.0001123 C59.1375295,45.4040673 58.5513637,46.7701071 57.8501946,48.0858547 L60.3730971,51.570596 C61.4433277,53.0499111 61.2654072,55.0677145 59.9656481,56.3461736 L56.1683127,60.0812798 C55.4545601,60.783179 54.5114384,61.171887 53.5046029,61.171887 C52.7150311,61.171887 51.9503076,60.9331159 51.3131708,60.4820517 L47.7834328,58.0004935 C46.4581882,58.6901721 45.0693892,59.2538849 43.6289821,59.6925718 L42.9029647,63.90381 C42.5974576,65.696473 41.0301011,67 39.1820857,67 L33.8044916,67 C31.9571134,67 30.3897568,65.696473 30.0836126,63.90381 L29.3700194,59.6925718 C27.9812204,59.2667321 26.6304903,58.7274605 25.3436332,58.0634764 L21.7629243,60.5702591 C21.1257874,61.0213233 20.3734881,61.259311 19.5839163,61.259311 C18.5772402,61.259311 17.6339591,60.8707597 16.9203658,60.1687039 L13.1230304,56.4337544 C11.8106878,55.1551385 11.6451915,53.1373351 12.7154221,51.6581767 L15.2260598,48.2241978 C14.5123072,46.9206708 13.9263006,45.5540042 13.4801456,44.1506759 L9.14777447,43.4235523 C7.32524459,43.1225817 6,41.5809103 6,39.7638062 L6,34.4870287 C6,32.6694546 7.32524459,31.1277832 9.14777447,30.826656 L13.3780444,30.1253835 C13.8111382,28.7085813 14.3718186,27.3425414 15.0729876,26.0266372 L12.5244403,22.5046075 C11.4535726,21.0254491 11.6321302,19.0076457 12.9320486,17.7290298 L16.7422861,13.9940803 C17.4429773,13.2920245 18.3986826,12.9034732 19.4053587,12.9034732 C20.1955677,12.9034732 20.9602912,13.1414609 21.597428,13.5925251 L25.1016805,16.0748666 C26.4262879,15.3728108 27.8157241,14.7964075 29.2430698,14.3575638 L29.9816707,10.09619 C30.2876557,8.30352699 31.8550122,7 33.7030276,7 L39.0677196,7 C40.9149386,7 42.4822952,8.30352699 42.7884394,10.09619 L43.5020326,14.2571358 C44.9929328,14.6959795 46.4327027,15.2847601 47.8089183,15.9995065 L51.3512397,13.5179483 C51.9883765,13.0662574 52.7405166,12.828113 53.5300884,12.828113 C54.5369238,12.828113 55.4802049,13.216821 56.1937981,13.9187202 L59.9911336,17.6538264 C61.3033169,18.9322855 61.4688132,20.9500889 60.3987419,22.4292474 L57.8756801,25.901298 C58.576212,27.204825 59.1499537,28.5708649 59.5959495,29.9870405 L63.8773496,30.7017869 Z M36.5000891,22.7894737 C28.3758493,22.7894737 21.7758621,29.394602 21.7758621,37.5265833 C21.7758621,45.6580296 28.3758493,52.2631579 36.5000891,52.2631579 C44.6248634,52.2631579 51.2241379,45.6580296 51.2241379,37.5265833 C51.2241379,29.394602 44.6248634,22.7894737 36.5000891,22.7894737 Z" id="Combined-Shape-Copy-3" stroke="#102D5C" stroke-width="4" transform="translate(36.500000, 37.000000) rotate(-13.000000) translate(-36.500000, -37.000000) "></path>
        </g>
    </g>
</svg>