<?xml version="1.0" encoding="UTF-8"?>
<svg width="170px" height="170px" viewBox="0 0 170 170" version="1.1" xmlns="http://www.w3.org/2000/svg" xmlns:xlink="http://www.w3.org/1999/xlink">
    <!-- Generator: Sketch 49.3 (51167) - http://www.bohemiancoding.com/sketch -->
    <title>no versions_Illustration</title>
    <desc>Created with Sketch.</desc>
    <defs></defs>
    <g id="App-Name" stroke="none" stroke-width="1" fill="none" fill-rule="evenodd">
        <g id="no-versions_Illustration" transform="translate(8.000000, 38.000000)">
            <g id="bg">
                <ellipse id="Oval-2" fill="#82BED7" cx="109.285714" cy="80.4705882" rx="2.24175824" ry="2.23529412"></ellipse>
                <ellipse id="Oval-2-Copy-3" fill="#82BED7" cx="21.2967033" cy="33.5294118" rx="2.24175824" ry="2.23529412"></ellipse>
                <ellipse id="Oval-2-Copy" stroke="#82BED7" cx="110.967033" cy="3.91176471" rx="2.24175824" ry="2.23529412"></ellipse>
                <ellipse id="Oval-2-Copy-2" stroke="#D28B8D" cx="3.08241758" cy="62.8676471" rx="3.08241758" ry="3.07352941"></ellipse>
                <rect id="Rectangle-12" fill="#D8D8D8" opacity="0.3" x="117.131868" y="14.5294118" width="12.3296703" height="6.14705882" rx="3.07352941"></rect>
                <rect id="Rectangle-12-Copy-2" fill="#D8D8D8" opacity="0.3" x="88.5494505" y="82.7058824" width="12.3296703" height="6.14705882" rx="3.07352941"></rect>
                <path d="M58.0467033,81.9701664 C56.5015927,82.0919579 55.2857143,83.3843793 55.2857143,84.9607843 L55.2857143,85.4803922 C55.2857143,87.0567972 56.5015927,88.3492186 58.0467033,88.4710101 C57.9678511,88.4772255 57.8881415,88.4803922 57.8076923,88.4803922 L68.8516484,88.4803922 C70.5085026,88.4803922 71.8516484,89.8235379 71.8516484,91.4803922 L71.8516484,92 C71.8516484,93.6568542 70.5085026,95 68.8516484,95 L31.7802198,95 C30.1233655,95 28.7802198,93.6568542 28.7802198,92 L28.7802198,91.4803922 C28.7802198,89.8235379 30.1233655,88.4803922 31.7802198,88.4803922 L42.8241758,88.4803922 C42.7437266,88.4803922 42.664017,88.4772255 42.5851648,88.4710101 C44.1302754,88.3492186 45.3461538,87.0567972 45.3461538,85.4803922 L45.3461538,84.9607843 C45.3461538,83.3843793 44.1302754,82.0919579 42.5851648,81.9701664 C42.664017,81.963951 42.7437266,81.9607843 42.8241758,81.9607843 L7.48351648,81.9607843 C5.82666223,81.9607843 4.48351648,80.6176386 4.48351648,78.9607843 L4.48351648,78.4411765 C4.48351648,76.7843222 5.82666223,75.4411765 7.48351648,75.4411765 L76.5824176,75.4411765 C78.2392718,75.4411765 79.5824176,76.7843222 79.5824176,78.4411765 L79.5824176,78.9607843 C79.5824176,80.6176386 78.2392718,81.9607843 76.5824176,81.9607843 L57.8076923,81.9607843 C57.8881415,81.9607843 57.9678511,81.963951 58.0467033,81.9701664 Z" id="Combined-Shape" fill="#D8D8D8" opacity="0.3"></path>
                <rect id="Rectangle-12-Copy" fill="#D8D8D8" opacity="0.3" x="135.065934" y="53.6470588" width="17.9340659" height="6.14705882" rx="3.07352941"></rect>
                <path d="M43.9925512,13.0392157 C43.8242792,13.0392157 43.6589852,13.0264658 43.4975824,13.0018793 C45.0630265,12.7634151 46.2624176,11.4114798 46.2624176,9.77941176 C46.2624176,8.14734372 45.0630265,6.79540847 43.4975824,6.55694427 C43.6589852,6.53235777 43.8242792,6.51960784 43.9925512,6.51960784 C42.1922112,6.51960784 40.7327473,5.06014391 40.7327473,3.25980392 C40.7327473,1.45946393 42.1922112,3.30717092e-16 43.9925512,0 L94.9815148,9.76996262e-15 C96.7818548,6.24119926e-15 98.2413187,1.45946393 98.2413187,3.25980392 C98.2413187,5.06014391 96.7818548,6.51960784 94.9815148,6.51960784 L91.547716,6.51960784 C89.747376,6.51960784 88.2879121,7.97907177 88.2879121,9.77941176 C88.2879121,11.5797518 89.747376,13.0392157 91.547716,13.0392157 L107.146789,13.0392157 C108.947129,13.0392157 110.406593,14.4986796 110.406593,16.2990196 C110.406593,18.0993596 108.947129,19.5588235 107.146789,19.5588235 L30.7213424,19.5588235 C28.9210024,19.5588235 27.4615385,18.0993596 27.4615385,16.2990196 C27.4615385,14.4986796 28.9210024,13.0392157 30.7213424,13.0392157 L43.9925512,13.0392157 Z" id="Combined-Shape" fill="#D8D8D8" opacity="0.3"></path>
                <rect id="Rectangle-11-Copy-5" fill="#D8D8D8" opacity="0.3" x="34.1868132" y="30.1764706" width="57.1648352" height="6.14705882" rx="3.07352941"></rect>
                <path d="M16.6789112,59.4215686 C18.4792512,59.4215686 19.9387151,57.9621047 19.9387151,56.1617647 C19.9387151,54.3614247 18.4792512,52.9019608 16.6789112,52.9019608 L11.1059578,52.9019608 C9.30561777,52.9019608 7.84615385,51.4424969 7.84615385,49.6421569 C7.84615385,47.8418169 9.30561777,46.3823529 11.1059578,46.3823529 L61.7511851,46.3823529 C63.5515251,46.3823529 65.010989,47.8418169 65.010989,49.6421569 C65.010989,51.4424969 63.5515251,52.9019608 61.7511851,52.9019608 L56.1782316,52.9019608 C54.3778917,52.9019608 52.9184277,54.3614247 52.9184277,56.1617647 C52.9184277,57.9621047 54.3778917,59.4215686 56.1782316,59.4215686 L61.7511851,59.4215686 C63.5515251,59.4215686 65.010989,60.8810326 65.010989,62.6813725 C65.010989,64.4817125 63.5515251,65.9411765 61.7511851,65.9411765 L11.1059578,65.9411765 C9.30561777,65.9411765 7.84615385,64.4817125 7.84615385,62.6813725 C7.84615385,60.8810326 9.30561777,59.4215686 11.1059578,59.4215686 L16.6789112,59.4215686 Z" id="Combined-Shape" fill="#D8D8D8" opacity="0.3"></path>
                <path d="M79.7648571,66.5 C80.6683046,65.8993086 81.2637363,64.8721307 81.2637363,63.7058824 C81.2637363,61.8541041 79.7625734,60.3529412 77.9107951,60.3529412 L72.2870071,60.3529412 C70.4352288,60.3529412 68.9340659,58.8517783 68.9340659,57 C68.9340659,55.1482217 70.4352288,53.6470588 72.2870071,53.6470588 L128.910795,53.6470588 C130.762573,53.6470588 132.263736,55.1482217 132.263736,57 C132.263736,58.8517783 130.762573,60.3529412 128.910795,60.3529412 L123.306399,60.3529412 L117.682612,60.3529412 C115.830833,60.3529412 114.32967,61.8541041 114.32967,63.7058824 C114.32967,64.8721307 114.925102,65.8993086 115.82855,66.5 L123.306399,66.5 C125.158178,66.5 126.659341,68.0011629 126.659341,69.8529412 C126.659341,71.7047195 125.158178,73.2058824 123.306399,73.2058824 L72.2870071,73.2058824 C70.4352288,73.2058824 68.9340659,71.7047195 68.9340659,69.8529412 C68.9340659,68.0011629 70.4352288,66.5 72.2870071,66.5 L79.7648571,66.5 Z" id="Combined-Shape-Copy" fill="#D8D8D8" opacity="0.3"></path>
                <path d="M13.7307692,7.82352941 C14.3277049,7.82352941 14.811617,8.30744142 14.811617,8.90437714 L14.811617,12.1313372 C14.811617,12.7282729 14.3277049,13.2121849 13.7307692,13.2121849 C13.1338335,13.2121849 12.6499215,12.7282729 12.6499215,12.1313372 L12.6499215,8.90437714 C12.6499215,8.30744142 13.1338335,7.82352941 13.7307692,7.82352941 Z M21.2889117,15.3676471 C21.2889117,15.9645828 20.8049997,16.4484948 20.208064,16.4484948 L16.981104,16.4484948 C16.3841683,16.4484948 15.9002563,15.9645828 15.9002563,15.3676471 C15.9002563,14.7707113 16.3841683,14.2867993 16.981104,14.2867993 L20.208064,14.2867993 C20.8049997,14.2867993 21.2889117,14.7707113 21.2889117,15.3676471 Z M11.5612822,15.3676471 C11.5612822,15.9645828 11.0773702,16.4484948 10.4804345,16.4484948 L7.25347447,16.4484948 C6.65653875,16.4484948 6.17262674,15.9645828 6.17262674,15.3676471 C6.17262674,14.7707113 6.65653875,14.2867993 7.25347447,14.2867993 L10.4804345,14.2867993 C11.0773702,14.2867993 11.5612822,14.7707113 11.5612822,15.3676471 Z M13.7307692,17.5231092 C14.3277049,17.5231092 14.811617,18.0070213 14.811617,18.603957 L14.811617,21.830917 C14.811617,22.4278527 14.3277049,22.9117647 13.7307692,22.9117647 C13.1338335,22.9117647 12.6499215,22.4278527 12.6499215,21.830917 L12.6499215,18.603957 C12.6499215,18.0070213 13.1338335,17.5231092 13.7307692,17.5231092 Z" id="Combined-Shape" fill="#D28B8D"></path>
                <path d="M126.659341,39.1176471 C127.057298,39.1176471 127.379906,39.4402551 127.379906,39.8382122 L127.379906,41.9895189 C127.379906,42.387476 127.057298,42.710084 126.659341,42.710084 C126.261384,42.710084 125.938776,42.387476 125.938776,41.9895189 L125.938776,39.8382122 C125.938776,39.4402551 126.261384,39.1176471 126.659341,39.1176471 Z M131.698102,44.1470588 C131.698102,44.545016 131.375494,44.867624 130.977537,44.867624 L128.82623,44.867624 C128.428273,44.867624 128.105665,44.545016 128.105665,44.1470588 C128.105665,43.7491017 128.428273,43.4264937 128.82623,43.4264937 L130.977537,43.4264937 C131.375494,43.4264937 131.698102,43.7491017 131.698102,44.1470588 Z M125.213016,44.1470588 C125.213016,44.545016 124.890408,44.867624 124.492451,44.867624 L122.341144,44.867624 C121.943187,44.867624 121.620579,44.545016 121.620579,44.1470588 C121.620579,43.7491017 121.943187,43.4264937 122.341144,43.4264937 L124.492451,43.4264937 C124.890408,43.4264937 125.213016,43.7491017 125.213016,44.1470588 Z M126.659341,45.5840336 C127.057298,45.5840336 127.379906,45.9066416 127.379906,46.3045988 L127.379906,48.4559054 C127.379906,48.8538626 127.057298,49.1764706 126.659341,49.1764706 C126.261384,49.1764706 125.938776,48.8538626 125.938776,48.4559054 L125.938776,46.3045988 C125.938776,45.9066416 126.261384,45.5840336 126.659341,45.5840336 Z" id="Combined-Shape-Copy-2" fill="#D28B8D"></path>
                <path d="M108.164835,31.2941176 C108.562792,31.2941176 108.8854,31.6167257 108.8854,32.0146828 L108.8854,34.1659895 C108.8854,34.5639466 108.562792,34.8865546 108.164835,34.8865546 C107.766878,34.8865546 107.44427,34.5639466 107.44427,34.1659895 L107.44427,32.0146828 C107.44427,31.6167257 107.766878,31.2941176 108.164835,31.2941176 Z M113.203597,36.3235294 C113.203597,36.7214866 112.880989,37.0440946 112.483032,37.0440946 L110.331725,37.0440946 C109.933768,37.0440946 109.61116,36.7214866 109.61116,36.3235294 C109.61116,35.9255723 109.933768,35.6029643 110.331725,35.6029643 L112.483032,35.6029643 C112.880989,35.6029643 113.203597,35.9255723 113.203597,36.3235294 Z M106.71851,36.3235294 C106.71851,36.7214866 106.395902,37.0440946 105.997945,37.0440946 L103.846639,37.0440946 C103.448682,37.0440946 103.126074,36.7214866 103.126074,36.3235294 C103.126074,35.9255723 103.448682,35.6029643 103.846639,35.6029643 L105.997945,35.6029643 C106.395902,35.6029643 106.71851,35.9255723 106.71851,36.3235294 Z M108.164835,37.7605042 C108.562792,37.7605042 108.8854,38.0831122 108.8854,38.4810694 L108.8854,40.632376 C108.8854,41.0303332 108.562792,41.3529412 108.164835,41.3529412 C107.766878,41.3529412 107.44427,41.0303332 107.44427,40.632376 L107.44427,38.4810694 C107.44427,38.0831122 107.766878,37.7605042 108.164835,37.7605042 Z" id="Combined-Shape-Copy-3" fill="#C5C5C5" transform="translate(108.164835, 36.323529) rotate(45.000000) translate(-108.164835, -36.323529) "></path>
            </g>
            <g id="Group" transform="translate(53.000000, 24.000000)">
                <rect id="Rectangle-18-Copy-3" fill="#FFFFFF" x="3.95294118" y="0" width="44.0470588" height="44" rx="4"></rect>
                <path d="M7.95294118,2 C6.84837168,2 5.95294118,2.8954305 5.95294118,4 L5.95294118,40 C5.95294118,41.1045695 6.84837168,42 7.95294118,42 L44,42 C45.1045695,42 46,41.1045695 46,40 L46,4 C46,2.8954305 45.1045695,2 44,2 L7.95294118,2 Z M7.95294118,0 L44,0 C46.209139,-4.05812251e-16 48,1.790861 48,4 L48,40 C48,42.209139 46.209139,44 44,44 L7.95294118,44 C5.74380218,44 3.95294118,42.209139 3.95294118,40 L3.95294118,4 C3.95294118,1.790861 5.74380218,4.05812251e-16 7.95294118,0 Z" id="Rectangle-18-Copy" fill="#333842" fill-rule="nonzero"></path>
                <rect id="Rectangle-18" fill="#FFFFFF" x="0" y="4" width="44.0470588" height="44" rx="4"></rect>
                <path d="M4,6 C2.8954305,6 2,6.8954305 2,8 L2,44 C2,45.1045695 2.8954305,46 4,46 L40.0470588,46 C41.1516283,46 42.0470588,45.1045695 42.0470588,44 L42.0470588,8 C42.0470588,6.8954305 41.1516283,6 40.0470588,6 L4,6 Z M4,4 L40.0470588,4 C42.2561978,4 44.0470588,5.790861 44.0470588,8 L44.0470588,44 C44.0470588,46.209139 42.2561978,48 40.0470588,48 L4,48 C1.790861,48 2.705415e-16,46.209139 -4.93038066e-32,44 L-4.4408921e-16,8 C-7.1463071e-16,5.790861 1.790861,4 4,4 Z" id="Rectangle-18-Copy-2" fill="#333842" fill-rule="nonzero"></path>
                <path d="M22.8705882,38.1428571 C16.5458858,38.1428571 11.4235294,32.9595203 11.4235294,26.5714286 C11.4235294,20.1833368 16.5458858,15 22.8705882,15 C29.1952907,15 34.3176471,20.1833368 34.3176471,26.5714286 C34.3176471,32.9595203 29.1952907,38.1428571 22.8705882,38.1428571 Z M22.8705882,36.1428571 C28.0853883,36.1428571 32.3176471,31.8602144 32.3176471,26.5714286 C32.3176471,21.2826428 28.0853883,17 22.8705882,17 C17.6557882,17 13.4235294,21.2826428 13.4235294,26.5714286 C13.4235294,31.8602144 17.6557882,36.1428571 22.8705882,36.1428571 Z" id="Oval-3" fill="#333842" fill-rule="nonzero"></path>
                <path d="M22.1294118,27.7210084 L29.2386555,27.7210084 C29.5505339,27.7210084 29.8033613,27.9738358 29.8033613,28.2857143 C29.8033613,28.5975927 29.5505339,28.8504202 29.2386555,28.8504202 L21.7966387,28.8504202 C21.5560744,28.8504202 21.3506434,28.6999967 21.2692737,28.4880776 C21.1077217,28.3887133 21,28.2102979 21,28.0067227 L21,20.5647059 C21,20.2528274 21.2528274,20 21.5647059,20 C21.8765843,20 22.1294118,20.2528274 22.1294118,20.5647059 L22.1294118,27.7210084 Z" id="Combined-Shape" fill="#D9913F"></path>
            </g>
        </g>
    </g>
</svg>