<?xml version="1.0" encoding="UTF-8"?>
<svg width="170px" height="170px" viewBox="0 0 170 170" version="1.1" xmlns="http://www.w3.org/2000/svg" xmlns:xlink="http://www.w3.org/1999/xlink">
    <!-- Generator: Sketch 49.3 (51167) - http://www.bohemiancoding.com/sketch -->
    <title>Illustration_no flows</title>
    <desc>Created with Sketch.</desc>
    <defs></defs>
    <g id="App-Name" stroke="none" stroke-width="1" fill="none" fill-rule="evenodd">
        <g id="Illustration_no-flows">
            <g transform="translate(9.000000, 38.000000)">
                <g id="bg">
                    <ellipse id="Oval-2" fill="#82BED7" cx="109.026178" cy="80.4576271" rx="2.38743455" ry="2.38983051"></ellipse>
                    <ellipse id="Oval-2-Copy-3" fill="#82BED7" cx="21.486911" cy="33.4576271" rx="2.38743455" ry="2.38983051"></ellipse>
                    <ellipse id="Oval-2-Copy" stroke="#82BED7" cx="110.617801" cy="3.98305085" rx="2.38743455" ry="2.38983051"></ellipse>
                    <ellipse id="Oval-2-Copy-2" stroke="#D28B8D" cx="3.18324607" cy="62.9322034" rx="3.18324607" ry="3.18644068"></ellipse>
                    <rect id="Rectangle-12" fill="#D8D8D8" opacity="0.3" x="116.188482" y="14.3389831" width="11.9371728" height="6.37288136" rx="3.18644068"></rect>
                    <rect id="Rectangle-12-Copy-2" fill="#D8D8D8" opacity="0.3" x="88.3350785" y="82.8474576" width="11.9371728" height="6.37288136" rx="3.18644068"></rect>
                    <path d="M58.1293502,81.2644867 C56.5893576,81.3914145 55.3791192,82.6814927 55.3791192,84.2542373 L55.3791192,84.6271186 C55.3791192,86.1998632 56.5893576,87.4899415 58.1293502,87.6168692 C58.0469921,87.6236573 57.9636908,87.6271186 57.8795812,87.6271186 L68.8805051,87.6271186 C70.5373593,87.6271186 71.8805051,88.9702644 71.8805051,90.6271186 L71.8805051,91 C71.8805051,92.6568542 70.5373593,94 68.8805051,94 L31.9769018,94 C30.3200475,94 28.9769018,92.6568542 28.9769018,91 L28.9769018,90.6271186 C28.9769018,88.9702644 30.3200475,87.6271186 31.9769018,87.6271186 L42.9778257,87.6271186 C42.893716,87.6271186 42.8104148,87.6236573 42.7280567,87.6168692 C44.2680493,87.4899415 45.4782877,86.1998632 45.4782877,84.6271186 L45.4782877,84.2542373 C45.4782877,82.6814927 44.2680493,81.3914145 42.7280567,81.2644867 C42.8104148,81.2576986 42.893716,81.2542373 42.9778257,81.2542373 L7.77486911,81.2542373 C6.11801486,81.2542373 4.77486911,79.9110915 4.77486911,78.2542373 L4.77486911,77.8813559 C4.77486911,76.2245017 6.11801486,74.8813559 7.77486911,74.8813559 L76.5811518,74.8813559 C78.2380061,74.8813559 79.5811518,76.2245017 79.5811518,77.8813559 L79.5811518,78.2542373 C79.5811518,79.9110915 78.2380061,81.2542373 76.5811518,81.2542373 L57.8795812,81.2542373 C57.9636908,81.2542373 58.0469921,81.2576986 58.1293502,81.2644867 Z" id="Combined-Shape" fill="#D8D8D8" opacity="0.3"></path>
                    <rect id="Rectangle-12-Copy" fill="#D8D8D8" opacity="0.3" x="134.492147" y="53.3728814" width="17.5078534" height="6.37288136" rx="3.18644068"></rect>
                    <path d="M43.486336,12.7457627 C43.3413272,12.7457627 43.1985808,12.7360764 43.0587086,12.7173155 C44.616323,12.5083947 45.8175218,11.1741359 45.8175218,9.55932203 C45.8175218,7.94450818 44.616323,6.61024934 43.0587086,6.40132855 C43.1985808,6.38256766 43.3413272,6.37288136 43.486336,6.37288136 C41.7265134,6.37288136 40.2998953,4.94626327 40.2998953,3.18644068 C40.2998953,1.42661809 41.7265134,1.21145259e-15 43.486336,8.8817842e-16 L94.4967705,1.77635684e-15 C96.2565931,1.45308267e-15 97.6832112,1.42661809 97.6832112,3.18644068 C97.6832112,4.94626327 96.2565931,6.37288136 94.4967705,6.37288136 L90.9379241,6.37288136 C89.1781015,6.37288136 87.7514834,7.79949944 87.7514834,9.55932203 C87.7514834,11.3191446 89.1781015,12.7457627 90.9379241,12.7457627 L106.635549,12.7457627 C108.395371,12.7457627 109.82199,14.1723808 109.82199,15.9322034 C109.82199,17.692026 108.395371,19.1186441 106.635549,19.1186441 L30.2440323,19.1186441 C28.4842097,19.1186441 27.0575916,17.692026 27.0575916,15.9322034 C27.0575916,14.1723808 28.4842097,12.7457627 30.2440323,12.7457627 L43.486336,12.7457627 Z" id="Combined-Shape" fill="#D8D8D8" opacity="0.3"></path>
                    <rect id="Rectangle-11-Copy-5" fill="#D8D8D8" opacity="0.3" x="34.2198953" y="30.2711864" width="56.5026178" height="6.37288136" rx="3.18644068"></rect>
                    <path d="M16.7241513,58.9491525 C18.4839739,58.9491525 19.910592,57.5225345 19.910592,55.7627119 C19.910592,54.0028893 18.4839739,52.5762712 16.7241513,52.5762712 L11.1445559,52.5762712 C9.38473327,52.5762712 7.95811518,54.0028893 7.95811518,55.7627119 C7.95811518,56.6426232 8.3147697,57.4392333 8.89140205,58.0158657 C8.3147697,57.4392333 7.95811518,56.6426232 7.95811518,55.7627119 C7.95811518,54.0028893 9.38473327,52.5762712 11.1445559,52.5762712 C9.38473327,52.5762712 7.95811518,51.1496531 7.95811518,49.3898305 C7.95811518,47.6300079 9.38473327,46.2033898 11.1445559,46.2033898 L61.2742923,46.2033898 C63.0341149,46.2033898 64.460733,47.6300079 64.460733,49.3898305 C64.460733,51.1496531 63.0341149,52.5762712 61.2742923,52.5762712 L55.6946968,52.5762712 C53.9348742,52.5762712 52.5082561,54.0028893 52.5082561,55.7627119 C52.5082561,57.5225345 53.9348742,58.9491525 55.6946968,58.9491525 L16.7241513,58.9491525 Z M55.6946968,58.9491525 L11.1445559,58.9491525 Z" id="Combined-Shape" fill="#D8D8D8" opacity="0.3"></path>
                    <path d="M79.1536002,66.4600484 C80.0735117,65.8484103 80.6797943,64.8025136 80.6797943,63.6150121 C80.6797943,61.7294879 79.1512749,60.2009685 77.2657507,60.2009685 L71.8538342,60.2009685 C69.96831,60.2009685 68.4397906,61.7294879 68.4397906,63.6150121 C68.4397906,64.5577742 68.8219204,65.4112851 69.4397408,66.0291055 C68.8219204,65.4112851 68.4397906,64.5577742 68.4397906,63.6150121 C68.4397906,61.7294879 69.96831,60.2009685 71.8538342,60.2009685 C69.96831,60.2009685 68.4397906,58.6724491 68.4397906,56.7869249 C68.4397906,54.9014007 69.96831,53.3728814 71.8538342,53.3728814 L127.894857,53.3728814 C129.780381,53.3728814 131.308901,54.9014007 131.308901,56.7869249 C131.308901,58.6724491 129.780381,60.2009685 127.894857,60.2009685 L122.331219,60.2009685 L116.919302,60.2009685 C115.033778,60.2009685 113.505259,61.7294879 113.505259,63.6150121 C113.505259,64.8025136 114.111541,65.8484103 115.031453,66.4600484 L122.331219,66.4600484 C124.216743,66.4600484 125.745262,67.9885678 125.745262,69.874092 C125.745262,71.7596162 124.216743,73.2881356 122.331219,73.2881356 L71.8538342,73.2881356 C69.96831,73.2881356 68.4397906,71.7596162 68.4397906,69.874092 C68.4397906,68.474493 69.2819882,67.2715997 70.4872436,66.7445521 C70.0938415,66.5725208 69.7391198,66.3284845 69.4397408,66.0291055 C69.7391198,66.3284845 70.0938415,66.5725208 70.4872436,66.7445521 C70.9056948,66.561567 71.367909,66.4600484 71.8538342,66.4600484 L79.1536002,66.4600484 Z" id="Combined-Shape-Copy" fill="#D8D8D8" opacity="0.3"></path>
                    <path d="M13.9267016,7.96610169 C14.5231856,7.96610169 15.0067315,8.44964756 15.0067315,9.04613161 L15.0067315,12.2916408 C15.0067315,12.8881248 14.5231856,13.3716707 13.9267016,13.3716707 C13.3302175,13.3716707 12.8466717,12.8881248 12.8466717,12.2916408 L12.8466717,9.04613161 C12.8466717,8.44964756 13.3302175,7.96610169 13.9267016,7.96610169 Z M21.4896207,15.5338983 C21.4896207,16.1303824 21.0060748,16.6139282 20.4095908,16.6139282 L17.1640816,16.6139282 C16.5675976,16.6139282 16.0840517,16.1303824 16.0840517,15.5338983 C16.0840517,14.9374143 16.5675976,14.4538684 17.1640816,14.4538684 L20.4095908,14.4538684 C21.0060748,14.4538684 21.4896207,14.9374143 21.4896207,15.5338983 Z M11.7693514,15.5338983 C11.7693514,16.1303824 11.2858056,16.6139282 10.6893215,16.6139282 L7.44381236,16.6139282 C6.8473283,16.6139282 6.36378244,16.1303824 6.36378244,15.5338983 C6.36378244,14.9374143 6.8473283,14.4538684 7.44381236,14.4538684 L10.6893215,14.4538684 C11.2858056,14.4538684 11.7693514,14.9374143 11.7693514,15.5338983 Z M13.9267016,17.6961259 C14.5231856,17.6961259 15.0067315,18.1796718 15.0067315,18.7761558 L15.0067315,22.021665 C15.0067315,22.6181491 14.5231856,23.1016949 13.9267016,23.1016949 C13.3302175,23.1016949 12.8466717,22.6181491 12.8466717,22.021665 L12.8466717,18.7761558 C12.8466717,18.1796718 13.3302175,17.6961259 13.9267016,17.6961259 Z" id="Combined-Shape" fill="#D28B8D"></path>
                    <path d="M126.136126,39.0338983 C126.544246,39.0338983 126.875093,39.3647455 126.875093,39.7728661 L126.875093,41.9934777 C126.875093,42.4015983 126.544246,42.7324455 126.136126,42.7324455 C125.728005,42.7324455 125.397158,42.4015983 125.397158,41.9934777 L125.397158,39.7728661 C125.397158,39.3647455 125.728005,39.0338983 126.136126,39.0338983 Z M131.310755,44.2118644 C131.310755,44.6199851 130.979907,44.9508322 130.571787,44.9508322 L128.351175,44.9508322 C127.943054,44.9508322 127.612207,44.6199851 127.612207,44.2118644 C127.612207,43.8037437 127.943054,43.4728966 128.351175,43.4728966 L130.571787,43.4728966 C130.979907,43.4728966 131.310755,43.8037437 131.310755,44.2118644 Z M124.660044,44.2118644 C124.660044,44.6199851 124.329197,44.9508322 123.921076,44.9508322 L121.700465,44.9508322 C121.292344,44.9508322 120.961497,44.6199851 120.961497,44.2118644 C120.961497,43.8037437 121.292344,43.4728966 121.700465,43.4728966 L123.921076,43.4728966 C124.329197,43.4728966 124.660044,43.8037437 124.660044,44.2118644 Z M126.136126,45.6912833 C126.544246,45.6912833 126.875093,46.0221305 126.875093,46.4302511 L126.875093,48.6508627 C126.875093,49.0589833 126.544246,49.3898305 126.136126,49.3898305 C125.728005,49.3898305 125.397158,49.0589833 125.397158,48.6508627 L125.397158,46.4302511 C125.397158,46.0221305 125.728005,45.6912833 126.136126,45.6912833 Z" id="Combined-Shape-Copy-2" fill="#D28B8D"></path>
                    <path d="M107.832461,31.0677966 C108.240581,31.0677966 108.571429,31.3986438 108.571429,31.8067644 L108.571429,34.027376 C108.571429,34.4354967 108.240581,34.7663438 107.832461,34.7663438 C107.42434,34.7663438 107.093493,34.4354967 107.093493,34.027376 L107.093493,31.8067644 C107.093493,31.3986438 107.42434,31.0677966 107.832461,31.0677966 Z M113.00709,36.2457627 C113.00709,36.6538834 112.676242,36.9847306 112.268122,36.9847306 L110.04751,36.9847306 C109.63939,36.9847306 109.308542,36.6538834 109.308542,36.2457627 C109.308542,35.837642 109.63939,35.5067949 110.04751,35.5067949 L112.268122,35.5067949 C112.676242,35.5067949 113.00709,35.837642 113.00709,36.2457627 Z M106.356379,36.2457627 C106.356379,36.6538834 106.025532,36.9847306 105.617411,36.9847306 L103.3968,36.9847306 C102.988679,36.9847306 102.657832,36.6538834 102.657832,36.2457627 C102.657832,35.837642 102.988679,35.5067949 103.3968,35.5067949 L105.617411,35.5067949 C106.025532,35.5067949 106.356379,35.837642 106.356379,36.2457627 Z M107.832461,37.7251816 C108.240581,37.7251816 108.571429,38.0560288 108.571429,38.4641494 L108.571429,40.684761 C108.571429,41.0928816 108.240581,41.4237288 107.832461,41.4237288 C107.42434,41.4237288 107.093493,41.0928816 107.093493,40.684761 L107.093493,38.4641494 C107.093493,38.0560288 107.42434,37.7251816 107.832461,37.7251816 Z" id="Combined-Shape-Copy-3" fill="#C5C5C5" transform="translate(107.832461, 36.245763) rotate(45.000000) translate(-107.832461, -36.245763) "></path>
                </g>
                <g id="Group-2" transform="translate(29.000000, 16.000000)">
                    <path d="M79.2792793,27.2857505 L79.2792793,41.7464789 L77.6936937,41.7464789 L77.6936937,27.2857505 L45.1891892,27.2857505 L45.1891892,41.7464789 L43.6036036,41.7464789 L43.6036036,27.2857505 L11.0990991,27.2857505 L11.0990991,41.7464789 L9.51351351,41.7464789 L9.51351351,27.2857505 L9.07245273,27.2857505 L9.07245273,25.700165 L43.6036036,25.700165 L43.6036036,15.2535211 L45.1891892,15.2535211 L45.1891892,25.700165 L79.7203401,25.700165 L79.7203401,27.2857505 L79.2792793,27.2857505 Z" id="Combined-Shape" fill="#333842"></path>
                    <rect id="Rectangle-Copy-8" fill="#FFFFFF" x="34.0900901" y="0" width="19.8198198" height="16.056338" rx="4"></rect>
                    <rect id="Rectangle-Copy-7" fill="#FFFFFF" x="0" y="40.943662" width="19.8198198" height="16.056338" rx="4"></rect>
                    <rect id="Rectangle-Copy-6" fill="#FFFFFF" x="34.0900901" y="40.943662" width="19.8198198" height="16.056338" rx="4"></rect>
                    <rect id="Rectangle-Copy-5" fill="#FFFFFF" x="68.1801802" y="40.943662" width="19.8198198" height="16.056338" rx="4"></rect>
                    <path d="M38.0900901,2 C36.9855206,2 36.0900901,2.8954305 36.0900901,4 L36.0900901,12.056338 C36.0900901,13.1609075 36.9855206,14.056338 38.0900901,14.056338 L49.9099099,14.056338 C51.0144794,14.056338 51.9099099,13.1609075 51.9099099,12.056338 L51.9099099,4 C51.9099099,2.8954305 51.0144794,2 49.9099099,2 L38.0900901,2 Z M38.0900901,0 L49.9099099,0 C52.1190489,-4.05812251e-16 53.9099099,1.790861 53.9099099,4 L53.9099099,12.056338 C53.9099099,14.265477 52.1190489,16.056338 49.9099099,16.056338 L38.0900901,16.056338 C35.8809511,16.056338 34.0900901,14.265477 34.0900901,12.056338 L34.0900901,4 C34.0900901,1.790861 35.8809511,-4.82366169e-16 38.0900901,0 Z" id="Rectangle" fill="#333842" fill-rule="nonzero"></path>
                    <path d="M4,42.943662 C2.8954305,42.943662 2,43.8390925 2,44.943662 L2,53 C2,54.1045695 2.8954305,55 4,55 L15.8198198,55 C16.9243893,55 17.8198198,54.1045695 17.8198198,53 L17.8198198,44.943662 C17.8198198,43.8390925 16.9243893,42.943662 15.8198198,42.943662 L4,42.943662 Z M4,40.943662 L15.8198198,40.943662 C18.0289588,40.943662 19.8198198,42.734523 19.8198198,44.943662 L19.8198198,53 C19.8198198,55.209139 18.0289588,57 15.8198198,57 L4,57 C1.790861,57 -6.17636919e-16,55.209139 -8.8817842e-16,53 L0,44.943662 C-2.705415e-16,42.734523 1.790861,40.943662 4,40.943662 Z" id="Rectangle-Copy" fill="#333842" fill-rule="nonzero"></path>
                    <path d="M38.0900901,42.943662 C36.9855206,42.943662 36.0900901,43.8390925 36.0900901,44.943662 L36.0900901,53 C36.0900901,54.1045695 36.9855206,55 38.0900901,55 L49.9099099,55 C51.0144794,55 51.9099099,54.1045695 51.9099099,53 L51.9099099,44.943662 C51.9099099,43.8390925 51.0144794,42.943662 49.9099099,42.943662 L38.0900901,42.943662 Z M38.0900901,40.943662 L49.9099099,40.943662 C52.1190489,40.943662 53.9099099,42.734523 53.9099099,44.943662 L53.9099099,53 C53.9099099,55.209139 52.1190489,57 49.9099099,57 L38.0900901,57 C35.8809511,57 34.0900901,55.209139 34.0900901,53 L34.0900901,44.943662 C34.0900901,42.734523 35.8809511,40.943662 38.0900901,40.943662 Z" id="Rectangle-Copy-2" fill="#333842" fill-rule="nonzero"></path>
                    <path d="M72.1801802,42.943662 C71.0756107,42.943662 70.1801802,43.8390925 70.1801802,44.943662 L70.1801802,53 C70.1801802,54.1045695 71.0756107,55 72.1801802,55 L84,55 C85.1045695,55 86,54.1045695 86,53 L86,44.943662 C86,43.8390925 85.1045695,42.943662 84,42.943662 L72.1801802,42.943662 Z M72.1801802,40.943662 L84,40.943662 C86.209139,40.943662 88,42.734523 88,44.943662 L88,53 C88,55.209139 86.209139,57 84,57 L72.1801802,57 C69.9710412,57 68.1801802,55.209139 68.1801802,53 L68.1801802,44.943662 C68.1801802,42.734523 69.9710412,40.943662 72.1801802,40.943662 Z" id="Rectangle-Copy-3" fill="#333842" fill-rule="nonzero"></path>
                </g>
            </g>
        </g>
    </g>
</svg>