<?xml version="1.0" encoding="UTF-8"?>
<svg width="210px" height="210px" viewBox="0 0 210 210" version="1.1" xmlns="http://www.w3.org/2000/svg" xmlns:xlink="http://www.w3.org/1999/xlink">
    <!-- Generator: Sketch 49.3 (51167) - http://www.bohemiancoding.com/sketch -->
    <title>Empty_user Illustration</title>
    <desc>Created with Sketch.</desc>
    <defs></defs>
    <g id="App-Name" stroke="none" stroke-width="1" fill="none" fill-rule="evenodd">
        <g id="Empty_user-Illustration" transform="translate(5.000000, 43.000000)">
            <circle id="Oval-2" fill="#82BED7" cx="141.915751" cy="104.915751" r="2.91575092"></circle>
            <circle id="Oval-2-Copy-3" fill="#82BED7" cx="27.9157509" cy="43.9157509" r="2.91575092"></circle>
            <circle id="Oval-2-Copy" stroke="#82BED7" cx="143.915751" cy="4.91575092" r="2.91575092"></circle>
            <circle id="Oval-2-Copy-2" stroke="#D28B8D" cx="4.00915751" cy="82.0091575" r="4.00915751"></circle>
            <rect id="Rectangle-12" fill="#D8D8D8" opacity="0.3" x="152" y="19" width="16.03663" height="8.01831502" rx="4"></rect>
            <rect id="Rectangle-12-Copy-2" fill="#D8D8D8" opacity="0.3" x="115" y="108" width="16.03663" height="8.01831502" rx="4"></rect>
            <path d="M76.2582418,106.504274 L75.0760612,106.504274 C73.4192069,106.504274 72.0760612,107.847419 72.0760612,109.504274 L72.0760612,112.008547 C72.0760612,113.665401 73.4192069,115.008547 75.0760612,115.008547 L76.2582418,115.008547 L90.6226029,115.008547 C92.2794571,115.008547 93.6226029,116.351693 93.6226029,118.008547 L93.6226029,120.512821 C93.6226029,122.169675 92.2794571,123.512821 90.6226029,123.512821 L40.6015945,123.512821 C38.9447402,123.512821 37.6015945,122.169675 37.6015945,120.512821 L37.6015945,118.008547 C37.6015945,116.351693 38.9447402,115.008547 40.6015945,115.008547 L54.9659556,115.008547 L56.1481362,115.008547 C57.8049904,115.008547 59.1481362,113.665401 59.1481362,112.008547 L59.1481362,109.504274 C59.1481362,107.847419 57.8049904,106.504274 56.1481362,106.504274 L54.9659556,106.504274 L9,106.504274 C7.34314575,106.504274 6,105.161128 6,103.504274 L6,101 C6,99.3431458 7.34314575,98 9,98 L100.677656,98 C102.33451,98 103.677656,99.3431458 103.677656,101 L103.677656,103.504274 C103.677656,105.161128 102.33451,106.504274 100.677656,106.504274 L76.2582418,106.504274 Z" id="Combined-Shape" fill="#D8D8D8" opacity="0.3"></path>
            <rect id="Rectangle-12-Copy" fill="#D8D8D8" opacity="0.3" x="176" y="70" width="23.3260073" height="8.01831502" rx="4"></rect>
            <path d="M57.2612454,17.008547 C57.124909,17.008547 56.9901658,17.0017261 56.8573382,16.9884071 C58.8767941,16.785909 60.453431,15.0813496 60.453431,13.008547 L60.453431,12.5042735 C60.453431,10.4314709 58.8767941,8.72691154 56.8573382,8.52441346 C56.9901658,8.51109437 57.124909,8.5042735 57.2612454,8.5042735 C55.0521064,8.5042735 53.2612454,6.7134125 53.2612454,4.5042735 L53.2612454,4 C53.2612454,1.790861 55.0521064,4.05812251e-16 57.2612454,0 L124.059976,0 C126.269115,-4.05812251e-16 128.059976,1.790861 128.059976,4 L128.059976,4.5042735 C128.059976,6.7134125 126.269115,8.5042735 124.059976,8.5042735 L119.114042,8.5042735 C116.904903,8.5042735 115.114042,10.2951345 115.114042,12.5042735 L115.114042,13.008547 C115.114042,15.217686 116.904903,17.008547 119.114042,17.008547 L139.882784,17.008547 C142.091923,17.008547 143.882784,18.799408 143.882784,21.008547 L143.882784,21.5128205 C143.882784,23.7219595 142.091923,25.5128205 139.882784,25.5128205 L40,25.5128205 C37.790861,25.5128205 36,23.7219595 36,21.5128205 L36,21.008547 C36,18.799408 37.790861,17.008547 40,17.008547 L57.2612454,17.008547 Z" id="Combined-Shape" fill="#D8D8D8" opacity="0.3"></path>
            <rect id="Rectangle-11-Copy-5" fill="#D8D8D8" opacity="0.3" x="44" y="39" width="74.3516484" height="8.01831502" rx="4"></rect>
            <path d="M21.7282333,78.008547 C23.9373723,78.008547 25.7282333,76.217686 25.7282333,74.008547 L25.7282333,73.5042735 C25.7282333,71.2951345 23.9373723,69.5042735 21.7282333,69.5042735 L14,69.5042735 C11.790861,69.5042735 10,67.7134125 10,65.5042735 L10,65 C10,62.790861 11.790861,61 14,61 L80.3516484,61 C82.5607874,61 84.3516484,62.790861 84.3516484,65 L84.3516484,65.5042735 C84.3516484,67.7134125 82.5607874,69.5042735 80.3516484,69.5042735 C82.5607874,69.5042735 84.3516484,71.2951345 84.3516484,73.5042735 L84.3516484,74.008547 C84.3516484,76.217686 82.5607874,78.008547 80.3516484,78.008547 C82.5607874,78.008547 84.3516484,79.799408 84.3516484,82.008547 L84.3516484,82.5128205 C84.3516484,84.7219595 82.5607874,86.5128205 80.3516484,86.5128205 L14,86.5128205 C11.790861,86.5128205 10,84.7219595 10,82.5128205 L10,82.008547 C10,79.799408 11.790861,78.008547 14,78.008547 L21.7282333,78.008547 Z" id="Combined-Shape" fill="#D8D8D8" opacity="0.3"></path>
            <path d="M104.339414,86.7655678 C105.36606,86.0414962 106.03663,84.8463108 106.03663,83.4945055 L106.03663,82.7472527 C106.03663,80.5381137 104.245769,78.7472527 102.03663,78.7472527 L94,78.7472527 C91.790861,78.7472527 90,80.5381137 90,82.7472527 L90,83.4945055 C90,84.599075 90.4477153,85.599075 91.1715729,86.3229326 C90.4477153,85.599075 90,84.599075 90,83.4945055 L90,82.7472527 C90,80.5381137 91.790861,78.7472527 94,78.7472527 C91.790861,78.7472527 90,76.9563917 90,74.7472527 L90,74 C90,71.790861 91.790861,70 94,70 L168.369963,70 C170.579102,70 172.369963,71.790861 172.369963,74 L172.369963,74.7472527 C172.369963,76.9563917 170.579102,78.7472527 168.369963,78.7472527 L161.080586,78.7472527 C163.289725,78.7472527 165.080586,80.5381137 165.080586,82.7472527 L165.080586,83.4945055 C165.080586,85.1073264 164.126059,86.4972056 162.751113,87.1300366 C164.126059,87.7628677 165.080586,89.1527469 165.080586,90.7655678 L165.080586,91.5128205 C165.080586,93.7219595 163.289725,95.5128205 161.080586,95.5128205 L94,95.5128205 C91.790861,95.5128205 90,93.7219595 90,91.5128205 L90,90.7655678 C90,89.1527469 90.9545267,87.7628677 92.3294735,87.1300366 C91.8961838,86.9306114 91.5046453,86.656005 91.1715729,86.3229326 C91.5046453,86.656005 91.8961838,86.9306114 92.3294735,87.1300366 C92.8378409,86.8960561 93.4036819,86.7655678 94,86.7655678 L104.339414,86.7655678 Z" id="Combined-Shape-Copy" fill="#D8D8D8" opacity="0.3"></path>
            <path d="M17.8406593,10 C18.6170659,10 19.2464678,10.6294019 19.2464678,11.4058085 L19.2464678,15.6232339 C19.2464678,16.3996405 18.6170659,17.0290424 17.8406593,17.0290424 C17.0642528,17.0290424 16.4348509,16.3996405 16.4348509,15.6232339 L16.4348509,11.4058085 C16.4348509,10.6294019 17.0642528,10 17.8406593,10 Z M27.6813187,19.8406593 C27.6813187,20.6170659 27.0519168,21.2464678 26.2755102,21.2464678 L22.0580848,21.2464678 C21.2816782,21.2464678 20.6522763,20.6170659 20.6522763,19.8406593 C20.6522763,19.0642528 21.2816782,18.4348509 22.0580848,18.4348509 L26.2755102,18.4348509 C27.0519168,18.4348509 27.6813187,19.0642528 27.6813187,19.8406593 Z M15.0290424,19.8406593 C15.0290424,20.6170659 14.3996405,21.2464678 13.6232339,21.2464678 L9.40580848,21.2464678 C8.62940189,21.2464678 8,20.6170659 8,19.8406593 C8,19.0642528 8.62940189,18.4348509 9.40580848,18.4348509 L13.6232339,18.4348509 C14.3996405,18.4348509 15.0290424,19.0642528 15.0290424,19.8406593 Z M17.8406593,22.6522763 C18.6170659,22.6522763 19.2464678,23.2816782 19.2464678,24.0580848 L19.2464678,28.2755102 C19.2464678,29.0519168 18.6170659,29.6813187 17.8406593,29.6813187 C17.0642528,29.6813187 16.4348509,29.0519168 16.4348509,28.2755102 L16.4348509,24.0580848 C16.4348509,23.2816782 17.0642528,22.6522763 17.8406593,22.6522763 Z" id="Combined-Shape" fill="#D28B8D"></path>
            <path d="M164.56044,51 C165.078044,51 165.497645,51.4196013 165.497645,51.9372057 L165.497645,54.7488226 C165.497645,55.266427 165.078044,55.6860283 164.56044,55.6860283 C164.042835,55.6860283 163.623234,55.266427 163.623234,54.7488226 L163.623234,51.9372057 C163.623234,51.4196013 164.042835,51 164.56044,51 Z M171.120879,57.5604396 C171.120879,58.0780439 170.701278,58.4976452 170.183673,58.4976452 L167.372057,58.4976452 C166.854452,58.4976452 166.434851,58.0780439 166.434851,57.5604396 C166.434851,57.0428352 166.854452,56.6232339 167.372057,56.6232339 L170.183673,56.6232339 C170.701278,56.6232339 171.120879,57.0428352 171.120879,57.5604396 Z M162.686028,57.5604396 C162.686028,58.0780439 162.266427,58.4976452 161.748823,58.4976452 L158.937206,58.4976452 C158.419601,58.4976452 158,58.0780439 158,57.5604396 C158,57.0428352 158.419601,56.6232339 158.937206,56.6232339 L161.748823,56.6232339 C162.266427,56.6232339 162.686028,57.0428352 162.686028,57.5604396 Z M164.56044,59.4348509 C165.078044,59.4348509 165.497645,59.8544521 165.497645,60.3720565 L165.497645,63.1836735 C165.497645,63.7012779 165.078044,64.1208791 164.56044,64.1208791 C164.042835,64.1208791 163.623234,63.7012779 163.623234,63.1836735 L163.623234,60.3720565 C163.623234,59.8544521 164.042835,59.4348509 164.56044,59.4348509 Z" id="Combined-Shape-Copy-2" fill="#D28B8D"></path>
            <path d="M140.277863,40.717423 C140.795467,40.717423 141.215068,41.1370243 141.215068,41.6546287 L141.215068,44.4662456 C141.215068,44.98385 140.795467,45.4034513 140.277863,45.4034513 C139.760258,45.4034513 139.340657,44.98385 139.340657,44.4662456 L139.340657,41.6546287 C139.340657,41.1370243 139.760258,40.717423 140.277863,40.717423 Z M146.838302,47.2778626 C146.838302,47.795467 146.418701,48.2150683 145.901097,48.2150683 L143.08948,48.2150683 C142.571875,48.2150683 142.152274,47.795467 142.152274,47.2778626 C142.152274,46.7602582 142.571875,46.340657 143.08948,46.340657 L145.901097,46.340657 C146.418701,46.340657 146.838302,46.7602582 146.838302,47.2778626 Z M138.403451,47.2778626 C138.403451,47.795467 137.98385,48.2150683 137.466246,48.2150683 L134.654629,48.2150683 C134.137024,48.2150683 133.717423,47.795467 133.717423,47.2778626 C133.717423,46.7602582 134.137024,46.340657 134.654629,46.340657 L137.466246,46.340657 C137.98385,46.340657 138.403451,46.7602582 138.403451,47.2778626 Z M140.277863,49.1522739 C140.795467,49.1522739 141.215068,49.5718752 141.215068,50.0894796 L141.215068,52.9010965 C141.215068,53.4187009 140.795467,53.8383022 140.277863,53.8383022 C139.760258,53.8383022 139.340657,53.4187009 139.340657,52.9010965 L139.340657,50.0894796 C139.340657,49.5718752 139.760258,49.1522739 140.277863,49.1522739 Z" id="Combined-Shape-Copy-3" fill="#C5C5C5" transform="translate(140.277863, 47.277863) rotate(45.000000) translate(-140.277863, -47.277863) "></path>
            <g id="User" transform="translate(59.000000, 22.000000)">
                <path d="M33.7171759,34.9348604 C50.6365637,34.9348604 64.466978,47.0653473 65.4343518,63.4343518 L2,63.4343518 C2.51974889,54.639642 6.75264472,46.8228482 13.1827787,41.471895 C16.7289164,39.0707622 19.5706721,37.5299841 21.7080456,36.8495606 C24.1338714,36.0773097 28.1369148,35.4390763 33.7171759,34.9348604 Z" id="Combined-Shape" fill="#FFFFFF"></path>
                <circle id="Oval-4" fill="#FFFFFF" cx="31.878499" cy="18.007761" r="17.007761"></circle>
                <path d="M62.4739328,54.6003281 C58.0751963,43.5180176 46.9383341,35.937228 33.7233671,35.934861 C33.1586844,35.9882293 32.5864099,36.015522 32.007761,36.015522 C22.0623492,36.015522 14,27.9531728 14,18.007761 C14,8.06234922 22.0623492,0 32.007761,0 C41.9531728,0 50.015522,8.06234922 50.015522,18.007761 C50.015522,25.2891982 45.6938651,31.5612584 39.4756049,34.3988878 C51.0845843,36.2968772 60.5211168,43.8627993 64.4788112,54.2340879 C64.9438827,54.1853122 65.4160316,54.1603059 65.894021,54.1603059 C73.3007498,54.1603059 79.3050899,60.164646 79.3050899,67.5713747 C79.3050899,74.9781035 73.3007498,80.9824436 65.894021,80.9824436 C58.4872922,80.9824436 52.4829522,74.9781035 52.4829522,67.5713747 C52.4829522,66.4911097 52.6106764,65.4406762 52.8518471,64.4343518 L0.93915734,64.4343518 L1.00174172,63.3753568 C1.52600042,54.5043362 5.73941832,46.3650604 12.543123,40.7032335 C12.9676431,40.3499614 13.5981682,40.4077193 13.9514403,40.8322393 C14.3047124,41.2567593 14.2469545,41.8872845 13.8224344,42.2405566 C7.71048716,47.3267249 3.83053009,54.5353814 3.07983662,62.4343518 L53.5020136,62.4343518 C55.091491,58.6043779 58.4048182,55.6703493 62.4739328,54.6003281 Z M32.007761,34.015522 C40.8486033,34.015522 48.015522,26.8486033 48.015522,18.007761 C48.015522,9.16691872 40.8486033,2 32.007761,2 C23.1669187,2 16,9.16691872 16,18.007761 C16,26.8486033 23.1669187,34.015522 32.007761,34.015522 Z" id="Combined-Shape" fill="#333842" fill-rule="nonzero"></path>
                <circle id="Oval-5" fill="#FFFFFF" cx="65.894021" cy="67.5713747" r="11.9912218"></circle>
                <path d="M66.8133595,66.6520363 L70.9503824,66.6520363 C71.458119,66.6520363 71.8697208,67.0636382 71.8697208,67.5713747 C71.8697208,68.0791113 71.458119,68.4907132 70.9503824,68.4907132 L66.8133595,68.4907132 L66.8133595,72.6277361 C66.8133595,73.1354727 66.4017576,73.5470746 65.894021,73.5470746 C65.3862844,73.5470746 64.9746826,73.1354727 64.9746826,72.6277361 L64.9746826,68.4907132 L60.8376596,68.4907132 C60.3299231,68.4907132 59.9183212,68.0791113 59.9183212,67.5713747 C59.9183212,67.0636382 60.3299231,66.6520363 60.8376596,66.6520363 L64.9746826,66.6520363 L64.9746826,62.5150134 C64.9746826,62.0072768 65.3862844,61.5956749 65.894021,61.5956749 C66.4017576,61.5956749 66.8133595,62.0072768 66.8133595,62.5150134 L66.8133595,66.6520363 Z" id="Combined-Shape" fill="#D9913F"></path>
            </g>
        </g>
    </g>
</svg>