<?xml version="1.0" encoding="UTF-8"?>
<svg width="210px" height="210px" viewBox="0 0 210 210" version="1.1" xmlns="http://www.w3.org/2000/svg" xmlns:xlink="http://www.w3.org/1999/xlink">
    <!-- Generator: Sketch 49.3 (51167) - http://www.bohemiancoding.com/sketch -->
    <title>Empry_bucket illustration</title>
    <desc>Created with Sketch.</desc>
    <defs></defs>
    <g id="App-Name" stroke="none" stroke-width="1" fill="none" fill-rule="evenodd">
        <g id="Empry_bucket-illustration" transform="translate(5.000000, 43.000000)">
            <g id="bg">
                <ellipse id="Oval-2" fill="#82BED7" cx="142.142857" cy="105.035294" rx="2.91575092" ry="2.91764706"></ellipse>
                <ellipse id="Oval-2-Copy-3" fill="#82BED7" cx="27.6996337" cy="43.7647059" rx="2.91575092" ry="2.91764706"></ellipse>
                <ellipse id="Oval-2-Copy" stroke="#82BED7" cx="144.32967" cy="5.10588235" rx="2.91575092" ry="2.91764706"></ellipse>
                <ellipse id="Oval-2-Copy-2" stroke="#D28B8D" cx="4.00915751" cy="82.0588235" rx="4.00915751" ry="4.01176471"></ellipse>
                <rect id="Rectangle-12" fill="#D8D8D8" opacity="0.3" x="152.347985" y="18.9647059" width="16.03663" height="8.02352941" rx="4"></rect>
                <rect id="Rectangle-12-Copy-2" fill="#D8D8D8" opacity="0.3" x="115.172161" y="107.952941" width="16.03663" height="8.02352941" rx="4"></rect>
                <path d="M76.0897436,106.980392 L74.907563,106.980392 C73.2507088,106.980392 71.907563,108.323538 71.907563,109.980392 L71.907563,112.490196 C71.907563,114.14705 73.2507088,115.490196 74.907563,115.490196 L76.0897436,115.490196 L90.4541047,115.490196 C92.110959,115.490196 93.4541047,116.833342 93.4541047,118.490196 L93.4541047,121 C93.4541047,122.656854 92.110959,124 90.4541047,124 L40.4330963,124 C38.7762421,124 37.4330963,122.656854 37.4330963,121 L37.4330963,118.490196 C37.4330963,116.833342 38.7762421,115.490196 40.4330963,115.490196 L54.7974574,115.490196 L55.979638,115.490196 C57.6364923,115.490196 58.979638,114.14705 58.979638,112.490196 L58.979638,109.980392 C58.979638,108.323538 57.6364923,106.980392 55.979638,106.980392 L54.7974574,106.980392 L8.83150183,106.980392 C7.17464758,106.980392 5.83150183,105.637246 5.83150183,103.980392 L5.83150183,101.470588 C5.83150183,99.813734 7.17464758,98.4705882 8.83150183,98.4705882 L100.509158,98.4705882 C102.166012,98.4705882 103.509158,99.813734 103.509158,101.470588 L103.509158,103.980392 C103.509158,105.637246 102.166012,106.980392 100.509158,106.980392 L76.0897436,106.980392 Z" id="Combined-Shape" fill="#D8D8D8" opacity="0.3"></path>
                <rect id="Rectangle-12-Copy" fill="#D8D8D8" opacity="0.3" x="175.673993" y="70.0235294" width="23.3260073" height="8.02352941" rx="4"></rect>
                <path d="M56.9791941,17.0196078 C56.8428578,17.0196078 56.7081145,17.012787 56.5752869,16.9994679 C58.5947428,16.7969698 60.1713797,15.0924105 60.1713797,13.0196078 L60.1713797,12.5098039 C60.1713797,10.4370013 58.5947428,8.73244196 56.5752869,8.52994388 C56.7081145,8.51662478 56.8428578,8.50980392 56.9791941,8.50980392 C54.7700551,8.50980392 52.9791941,6.71894292 52.9791941,4.50980392 L52.9791941,4 C52.9791941,1.790861 54.7700551,4.05812251e-16 56.9791941,0 L123.777924,0 C125.987063,-4.05812251e-16 127.777924,1.790861 127.777924,4 L127.777924,4.50980392 C127.777924,6.71894292 125.987063,8.50980392 123.777924,8.50980392 L118.83199,8.50980392 C116.622851,8.50980392 114.83199,10.3006649 114.83199,12.5098039 L114.83199,13.0196078 C114.83199,15.2287468 116.622851,17.0196078 118.83199,17.0196078 L139.600733,17.0196078 C141.809872,17.0196078 143.600733,18.8104688 143.600733,21.0196078 L143.600733,21.5294118 C143.600733,23.7385508 141.809872,25.5294118 139.600733,25.5294118 L39.7179487,25.5294118 C37.5088097,25.5294118 35.7179487,23.7385508 35.7179487,21.5294118 L35.7179487,21.0196078 C35.7179487,18.8104688 37.5088097,17.0196078 39.7179487,17.0196078 L56.9791941,17.0196078 Z" id="Combined-Shape" fill="#D8D8D8" opacity="0.3"></path>
                <rect id="Rectangle-11-Copy-5" fill="#D8D8D8" opacity="0.3" x="44.4652015" y="39.3882353" width="74.3516484" height="8.02352941" rx="4"></rect>
                <path d="M21.9333615,77.5607843 C24.1425005,77.5607843 25.9333615,75.7699233 25.9333615,73.5607843 L25.9333615,73.0509804 C25.9333615,70.8418414 24.1425005,69.0509804 21.9333615,69.0509804 L14.2051282,69.0509804 C11.9959892,69.0509804 10.2051282,67.2601194 10.2051282,65.0509804 L10.2051282,64.5411765 C10.2051282,62.3320375 11.9959892,60.5411765 14.2051282,60.5411765 L80.5567766,60.5411765 C82.7659156,60.5411765 84.5567766,62.3320375 84.5567766,64.5411765 L84.5567766,65.0509804 C84.5567766,67.2601194 82.7659156,69.0509804 80.5567766,69.0509804 L72.8285433,69.0509804 C70.6194043,69.0509804 68.8285433,70.8418414 68.8285433,73.0509804 L68.8285433,73.5607843 C68.8285433,75.7699233 70.6194043,77.5607843 72.8285433,77.5607843 L80.5567766,77.5607843 C82.7659156,77.5607843 84.5567766,79.3516453 84.5567766,81.5607843 L84.5567766,82.0705882 C84.5567766,84.2797272 82.7659156,86.0705882 80.5567766,86.0705882 L14.2051282,86.0705882 C11.9959892,86.0705882 10.2051282,84.2797272 10.2051282,82.0705882 L10.2051282,81.5607843 C10.2051282,79.3516453 11.9959892,77.5607843 14.2051282,77.5607843 L21.9333615,77.5607843 Z" id="Combined-Shape" fill="#D8D8D8" opacity="0.3"></path>
                <path d="M103.999426,86.8 C105.025693,86.0758808 105.695971,84.8809221 105.695971,83.5294118 L105.695971,82.7764706 C105.695971,80.5673316 103.90511,78.7764706 101.695971,78.7764706 L93.6593407,78.7764706 C91.4502017,78.7764706 89.6593407,76.9856096 89.6593407,74.7764706 L89.6593407,74.0235294 C89.6593407,71.8143904 91.4502017,70.0235294 93.6593407,70.0235294 L168.029304,70.0235294 C170.238443,70.0235294 172.029304,71.8143904 172.029304,74.0235294 L172.029304,74.7764706 C172.029304,76.9856096 170.238443,78.7764706 168.029304,78.7764706 L160.739927,78.7764706 C162.949066,78.7764706 164.739927,80.5673316 164.739927,82.7764706 L164.739927,83.5294118 C164.739927,85.1420313 163.785638,86.5317649 162.410968,87.1647059 C163.785638,87.7976469 164.739927,89.1873805 164.739927,90.8 L164.739927,91.5529412 C164.739927,93.7620802 162.949066,95.5529412 160.739927,95.5529412 L93.6593407,95.5529412 C91.4502017,95.5529412 89.6593407,93.7620802 89.6593407,91.5529412 L89.6593407,90.8 C89.6593407,88.590861 91.4502017,86.8 93.6593407,86.8 L103.999426,86.8 Z" id="Combined-Shape-Copy" fill="#D8D8D8" opacity="0.3"></path>
                <path d="M17.8589744,10.2117647 C18.6353809,10.2117647 19.2647828,10.8411666 19.2647828,11.6175732 L19.2647828,15.8395697 C19.2647828,16.6159763 18.6353809,17.2453782 17.8589744,17.2453782 C17.0825678,17.2453782 16.4531659,16.6159763 16.4531659,15.8395697 L16.4531659,11.6175732 C16.4531659,10.8411666 17.0825678,10.2117647 17.8589744,10.2117647 Z M27.7019192,20.0588235 C27.7019192,20.8352301 27.0725173,21.464632 26.2961108,21.464632 L22.0741143,21.464632 C21.2977077,21.464632 20.6683058,20.8352301 20.6683058,20.0588235 C20.6683058,19.2824169 21.2977077,18.6530151 22.0741143,18.6530151 L26.2961108,18.6530151 C27.0725173,18.6530151 27.7019192,19.2824169 27.7019192,20.0588235 Z M15.0496429,20.0588235 C15.0496429,20.8352301 14.420241,21.464632 13.6438345,21.464632 L9.42183797,21.464632 C8.64543138,21.464632 8.01602949,20.8352301 8.01602949,20.0588235 C8.01602949,19.2824169 8.64543138,18.6530151 9.42183797,18.6530151 L13.6438345,18.6530151 C14.420241,18.6530151 15.0496429,19.2824169 15.0496429,20.0588235 Z M17.8589744,22.8722689 C18.6353809,22.8722689 19.2647828,23.5016708 19.2647828,24.2780774 L19.2647828,28.5000739 C19.2647828,29.2764805 18.6353809,29.9058824 17.8589744,29.9058824 C17.0825678,29.9058824 16.4531659,29.2764805 16.4531659,28.5000739 L16.4531659,24.2780774 C16.4531659,23.5016708 17.0825678,22.8722689 17.8589744,22.8722689 Z" id="Combined-Shape" fill="#D28B8D"></path>
                <path d="M164.739927,51.0588235 C165.257531,51.0588235 165.677132,51.4784248 165.677132,51.9960292 L165.677132,54.8106935 C165.677132,55.3282979 165.257531,55.7478992 164.739927,55.7478992 C164.222322,55.7478992 163.802721,55.3282979 163.802721,54.8106935 L163.802721,51.9960292 C163.802721,51.4784248 164.222322,51.0588235 164.739927,51.0588235 Z M171.30189,57.6235294 C171.30189,58.1411338 170.882289,58.5607351 170.364684,58.5607351 L167.55002,58.5607351 C167.032416,58.5607351 166.612814,58.1411338 166.612814,57.6235294 C166.612814,57.105925 167.032416,56.6863238 167.55002,56.6863238 L170.364684,56.6863238 C170.882289,56.6863238 171.30189,57.105925 171.30189,57.6235294 Z M162.867039,57.6235294 C162.867039,58.1411338 162.447438,58.5607351 161.929833,58.5607351 L159.115169,58.5607351 C158.597565,58.5607351 158.177963,58.1411338 158.177963,57.6235294 C158.177963,57.105925 158.597565,56.6863238 159.115169,56.6863238 L161.929833,56.6863238 C162.447438,56.6863238 162.867039,57.105925 162.867039,57.6235294 Z M164.739927,59.4991597 C165.257531,59.4991597 165.677132,59.9187609 165.677132,60.4363653 L165.677132,63.2510296 C165.677132,63.768634 165.257531,64.1882353 164.739927,64.1882353 C164.222322,64.1882353 163.802721,63.768634 163.802721,63.2510296 L163.802721,60.4363653 C163.802721,59.9187609 164.222322,59.4991597 164.739927,59.4991597 Z" id="Combined-Shape-Copy-2" fill="#D28B8D"></path>
                <path d="M140.684982,40.8470588 C141.202586,40.8470588 141.622187,41.2666601 141.622187,41.7842645 L141.622187,44.5989288 C141.622187,45.1165332 141.202586,45.5361345 140.684982,45.5361345 C140.167377,45.5361345 139.747776,45.1165332 139.747776,44.5989288 L139.747776,41.7842645 C139.747776,41.2666601 140.167377,40.8470588 140.684982,40.8470588 Z M147.246945,47.4117647 C147.246945,47.9293691 146.827344,48.3489704 146.309739,48.3489704 L143.495075,48.3489704 C142.977471,48.3489704 142.557869,47.9293691 142.557869,47.4117647 C142.557869,46.8941603 142.977471,46.4745591 143.495075,46.4745591 L146.309739,46.4745591 C146.827344,46.4745591 147.246945,46.8941603 147.246945,47.4117647 Z M138.812094,47.4117647 C138.812094,47.9293691 138.392493,48.3489704 137.874888,48.3489704 L135.060224,48.3489704 C134.54262,48.3489704 134.123018,47.9293691 134.123018,47.4117647 C134.123018,46.8941603 134.54262,46.4745591 135.060224,46.4745591 L137.874888,46.4745591 C138.392493,46.4745591 138.812094,46.8941603 138.812094,47.4117647 Z M140.684982,49.287395 C141.202586,49.287395 141.622187,49.7069962 141.622187,50.2246006 L141.622187,53.0392649 C141.622187,53.5568693 141.202586,53.9764706 140.684982,53.9764706 C140.167377,53.9764706 139.747776,53.5568693 139.747776,53.0392649 L139.747776,50.2246006 C139.747776,49.7069962 140.167377,49.287395 140.684982,49.287395 Z" id="Combined-Shape-Copy-3" fill="#C5C5C5" transform="translate(140.684982, 47.411765) rotate(45.000000) translate(-140.684982, -47.411765) "></path>
            </g>
            <g id="Group-6" transform="translate(59.000000, 27.000000)">
                <rect id="Rectangle-4" fill="#333842" x="3.15789474" y="8.42105263" width="3.15789474" height="1.05263158"></rect>
                <rect id="Rectangle-4-Copy-2" fill="#333842" x="73.6842105" y="8.42105263" width="3.15789474" height="1.05263158"></rect>
                <g id="bucket">
                    <g id="Group">
                        <path d="M6.92307692,7.66590389 L72.7697995,7.66590389 L65.6819738,68.3835612 C65.564304,69.391576 64.7103225,70.1516675 63.6954629,70.1516675 L16.3563219,70.1516675 C15.3459072,70.1516675 14.4941964,69.3980328 14.371196,68.3951327 L6.92307692,7.66590389 Z" id="Rectangle-Copy-4" fill="#FFFFFF"></path>
                        <path d="M9.30231379,9.77116705 L16.4494638,68.0464044 L63.6017728,68.0464044 L70.4044846,9.77116705 L9.30231379,9.77116705 Z M6.92307692,7.66590389 L72.7697995,7.66590389 L65.6928369,68.290503 C65.5689739,69.3515711 64.670046,70.1516675 63.6017728,70.1516675 L16.4494638,70.1516675 C15.3858694,70.1516675 14.4893317,69.3583679 14.3598576,68.3026835 L6.92307692,7.66590389 Z" id="Rectangle" fill="#333842" fill-rule="nonzero"></path>
                        <rect id="Rectangle-14" fill="#FFFFFF" transform="translate(40.000000, 4.599542) scale(1, -1) translate(-40.000000, -4.599542) " x="0" y="0" width="80" height="9.19908467" rx="2"></rect>
                        <path d="M2.10526316,2.10526316 L2.10526316,7.09382151 L77.8947368,7.09382151 L77.8947368,2.10526316 L2.10526316,2.10526316 Z M2.10526316,0 L77.8947368,0 C79.0574416,8.04792865e-15 80,0.942558421 80,2.10526316 L80,7.09382151 C80,8.25652625 79.0574416,9.19908467 77.8947368,9.19908467 L2.10526316,9.19908467 C0.942558421,9.19908467 1.42390263e-16,8.25652625 0,7.09382151 L0,2.10526316 C-1.42390263e-16,0.942558421 0.942558421,2.13585395e-16 2.10526316,0 Z" id="Rectangle-14-Copy" fill="#333842" fill-rule="nonzero"></path>
                    </g>
                </g>
                <rect id="Rectangle-15" fill="#EEEEEE" transform="translate(61.052632, 40.526316) rotate(7.000000) translate(-61.052632, -40.526316) " x="58.9473684" y="15.7894737" width="4.21052632" height="49.4736842" rx="2.10526316"></rect>
                <path d="M4.21052632,9.47368421 L4.34199844,9.47368421 C5.89589662,27.7824407 21.0314847,42.1510297 39.4736842,42.1510297 C57.9158837,42.1510297 73.0514718,27.7824407 74.6053685,9.47370202 L74.7368421,9.47368421 C74.7368421,29.2396647 58.9489885,45.2631579 39.4736842,45.2631579 C19.9983799,45.2631579 4.21052632,29.2396647 4.21052632,9.47368421 Z" id="Combined-Shape" fill="#D8D8D8"></path>
                <path d="M39.4736842,44.7368421 C54.9663119,44.7368421 68.091944,34.4401307 72.5686104,20.2182681 C67.1849986,33.4514684 54.3331541,42.6773455 39.4736842,42.6773455 C24.6142038,42.6773455 11.7623543,33.4514562 6.37874781,20.2182681 C10.8554044,34.440115 23.9810447,44.7368421 39.4736842,44.7368421 Z M74.6053685,9.47370202 L74.6054398,10.0000178 L74.7369134,10 L74.7368436,9.48486056 L74.6053685,9.47370202 Z M4.21052632,10 L4.34199844,10 L4.34199844,9.47368421 L4.21052632,9.48484249 L4.21052632,10 Z M4.82553701,8.94736842 L4.86642882,9.42917483 C6.40673677,27.5778049 21.4154688,41.624714 39.4736842,41.624714 C57.531897,41.624714 72.5406314,27.5778075 74.0809381,9.42919264 L74.1218243,8.94745171 L75.2631579,8.94729714 L75.2631579,9.47368421 C75.2631579,29.5286098 59.2414244,45.7894737 39.4736842,45.7894737 C19.705944,45.7894737 3.68421053,29.5286098 3.68421053,9.47368421 L3.68421053,8.94729714 L4.82553701,8.94736842 Z" id="Combined-Shape-Copy-5" fill="#333842" fill-rule="nonzero"></path>
                <rect id="Rectangle-17" fill="#D9913F" x="30.5263158" y="38.9473684" width="17.8947368" height="7.36842105" rx="2"></rect>
                <path d="M32.6315789,40 C32.0502266,40 31.5789474,40.4712792 31.5789474,41.0526316 L31.5789474,44.2105263 C31.5789474,44.7918787 32.0502266,45.2631579 32.6315789,45.2631579 L46.3157895,45.2631579 C46.8971418,45.2631579 47.3684211,44.7918787 47.3684211,44.2105263 L47.3684211,41.0526316 C47.3684211,40.4712792 46.8971418,40 46.3157895,40 L32.6315789,40 Z M32.6315789,38.9473684 L46.3157895,38.9473684 C47.4784942,38.9473684 48.4210526,39.8899268 48.4210526,41.0526316 L48.4210526,44.2105263 C48.4210526,45.3732311 47.4784942,46.3157895 46.3157895,46.3157895 L32.6315789,46.3157895 C31.4688742,46.3157895 30.5263158,45.3732311 30.5263158,44.2105263 L30.5263158,41.0526316 C30.5263158,39.8899268 31.4688742,38.9473684 32.6315789,38.9473684 Z" id="Rectangle-17-Copy" fill="#333842" fill-rule="nonzero"></path>
            </g>
        </g>
    </g>
</svg>