<?xml version="1.0" encoding="UTF-8"?>
<svg width="1316px" height="291px" viewBox="0 0 1316 291" version="1.1" xmlns="http://www.w3.org/2000/svg" xmlns:xlink="http://www.w3.org/1999/xlink">
    <!-- Generator: Sketch 49.3 (51167) - http://www.bohemiancoding.com/sketch -->
    <title>Syncfusion</title>
    <desc>Created with Sketch.</desc>
    <defs></defs>
    <g id="App-Name" stroke="none" stroke-width="1" fill="none" fill-rule="evenodd">
        <g id="Syncfusion" fill="#000000">
            <path d="M367.96583,136.46121 L293.884729,136.46121 C285.899337,136.46121 280.06618,137.946427 276.345027,140.896791 C272.623875,143.867226 270.773356,148.563724 270.773356,154.986285 C270.773356,160.164475 272.342275,164.038082 275.52034,166.607107 C278.698405,169.156061 283.425274,170.440573 289.700947,170.440573 L329.406647,170.440573 C345.759602,170.440573 357.425917,173.551501 364.325135,179.713146 C371.264581,185.894861 374.704132,196.211101 374.704132,210.581581 C374.704132,225.212979 370.721494,235.930628 362.736102,242.79474 C354.750711,249.658853 342.17925,253.090909 325.041836,253.090909 L245.208035,253.090909 L245.208035,227.882356 L320.274738,227.882356 C328.823331,227.882356 334.857632,226.637985 338.337412,224.149242 C341.837307,221.6605 343.587254,217.566117 343.587254,211.805882 C343.587254,205.865013 341.978107,201.650207 338.779928,199.141394 C335.581748,196.632581 330.090534,195.368139 322.3264,195.368139 L286.88494,195.368139 C270.531984,195.368139 258.563954,192.096647 251.000964,185.553663 C243.417859,179.030749 239.636364,168.754651 239.636364,154.665157 C239.636364,139.612279 243.619002,128.633713 251.564165,121.689319 C259.529442,114.744924 272.18136,111.272727 289.499803,111.272727 L367.96583,111.272727 L367.96583,136.46121 Z M432.573343,229.528755 L454.279249,229.528755 L454.279249,148.363636 L481.45124,148.363636 L481.45124,249.579188 C481.45124,263.387695 478.282494,273.583511 471.945004,280.226848 C465.587708,286.850115 455.883426,290.181818 442.812352,290.181818 L389.795282,290.181818 L389.795282,269.087718 L438.178062,269.087718 C443.347077,269.087718 447.327814,267.803206 450.12027,265.234182 C452.892923,262.665157 454.279249,258.992255 454.279249,254.115122 L454.279249,252.389059 L430.394831,252.389059 C415.046221,252.389059 404.11405,249.318272 397.578512,243.196768 C391.042975,237.075264 387.775207,226.839307 387.775207,212.529038 L387.775207,148.363636 L414.669932,148.363636 L414.669932,210.421635 C414.669932,218.269202 415.818603,223.407251 418.135748,225.855853 C420.433088,228.284384 425.24562,229.528755 432.573343,229.528755 Z M505.414876,148.363636 L556.2704,148.363636 C571.649458,148.363636 582.626038,151.252241 589.200141,157.049234 C595.793987,162.866013 599.090909,172.481504 599.090909,185.895708 L599.090909,250.909091 L572.004815,250.909091 L572.004815,189.219581 C572.004815,181.562801 570.80055,176.596776 568.431504,174.321506 C566.062457,172.02645 561.324365,170.898707 554.197485,170.898707 L532.520712,170.898707 L532.520712,250.909091 L505.414876,250.909091 L505.414876,148.363636 Z M676.762359,228.963335 L705.838017,228.963335 L705.838017,250.909091 L668.700201,250.909091 C659.281045,250.909091 651.538179,249.939441 645.511516,248.019929 C639.424985,246.080629 634.1766,242.954002 629.706492,238.659836 C624.877179,233.989685 621.125481,228.270727 618.411487,221.502965 C615.677537,214.735202 614.340496,207.611242 614.340496,200.051928 C614.340496,192.136416 615.677537,184.755202 618.371575,177.868706 C621.045658,171.002 624.817311,165.243465 629.706492,160.612891 C634.236467,156.318726 639.564676,153.192099 645.691119,151.252798 C651.817561,149.313498 659.460647,148.363636 668.700201,148.363636 L705.838017,148.363636 L705.838017,170.606224 L676.762359,170.606224 C663.890843,170.606224 655.030451,172.802779 650.181182,177.195888 C645.311958,181.588997 642.877345,189.227466 642.877345,200.111294 C642.877345,206.384337 643.875137,211.588786 645.850765,215.665275 C647.846349,219.761552 650.919548,223.086067 655.070363,225.63882 C657.105858,226.845935 659.500559,227.696853 662.214553,228.211361 C664.928547,228.686292 669.777816,228.963335 676.762359,228.963335 Z M729.799884,169.866821 L710.195041,169.866821 L710.195041,149.070836 L729.799884,149.070836 L729.799884,138.211156 C729.799884,127.632503 731.764378,120.486393 735.693364,116.792897 C739.58226,113.119475 747.099454,111.272727 758.224902,111.272727 L784.264463,111.272727 L784.264463,131.185485 L771.234659,131.185485 C766.523884,131.185485 763.176227,131.928199 761.211734,133.393553 C759.207148,134.858908 758.224902,137.267709 758.224902,140.660104 L758.224902,149.070836 L784.264463,149.070836 L784.264463,169.866821 L758.224902,169.866821 L758.224902,253.090909 L729.799884,253.090909 L729.799884,169.866821 Z M886.654545,250.909091 L835.468487,250.909091 C820.493,250.909091 809.637752,247.941347 802.962171,242.005858 C796.28659,236.050585 792.978512,226.534019 792.978512,213.416589 L792.978512,148.363636 L819.859117,148.363636 L819.859117,211.260028 C819.859117,218.105625 821.047647,222.656166 823.444518,224.951222 C825.821579,227.226492 830.575702,228.37402 837.667269,228.37402 L859.476809,228.37402 L859.476809,148.363636 L886.654545,148.363636 L886.654545,250.909091 Z M907.992374,229.521548 L965.381208,229.521548 C970.495261,229.521548 974.196483,228.749934 976.524671,227.167137 C978.892657,225.604125 980.046801,223.091435 980.046801,219.609282 C980.046801,216.146914 978.872757,213.594654 976.484873,212.011857 C974.136786,210.409275 970.435564,209.598092 965.381208,209.598092 L941.800844,209.598092 C927.891415,209.598092 918.479168,207.481101 913.603903,203.227334 C908.68884,198.973567 906.261157,191.415712 906.261157,180.553768 C906.261157,169.51376 909.226114,161.401926 915.11623,156.178696 C921.026245,150.975251 930.179804,148.363636 942.576907,148.363636 L1001.25918,148.363636 L1001.25918,169.75118 L953.023903,169.75118 C945.143883,169.75118 940.02983,170.443653 937.681743,171.8286 C935.313757,173.193763 934.119814,175.647098 934.119814,179.188606 C934.119814,182.373985 935.174464,184.74818 937.263863,186.251837 C939.313464,187.775279 942.596806,188.527108 947.093989,188.527108 L971.788699,188.527108 C983.051556,188.527108 991.647942,191.138723 997.577856,196.322383 C1003.52767,201.545612 1006.47273,209.063898 1006.47273,218.916808 C1006.47273,228.37402 1003.82615,236.090155 998.592707,242.005858 C993.33936,247.941347 986.593585,250.909091 978.315584,250.909091 L907.992374,250.909091 L907.992374,229.521548 Z M1023.90083,250.909091 L1023.90083,148.28072 L1052.22149,148.28072 L1052.22149,250.909091 L1023.90083,250.909091 Z M1023.90083,136.71696 L1023.90083,111.272727 L1052.22149,111.272727 L1052.22149,136.71696 L1023.90083,136.71696 Z M1174.21818,199.736129 C1174.21818,215.938104 1169.3291,228.907666 1159.53114,238.584954 C1149.75297,248.262242 1136.51088,253.090909 1119.90383,253.090909 C1103.29678,253.090909 1090.03489,248.262242 1080.11816,238.545047 C1070.22123,228.847806 1065.29256,215.918151 1065.29256,199.736129 C1065.29256,183.534155 1070.22123,170.54464 1080.11816,160.787539 C1090.03489,151.050392 1103.29678,146.181818 1119.90383,146.181818 C1136.39211,146.181818 1149.57482,151.050392 1159.45196,160.787539 C1169.28951,170.54464 1174.21818,183.534155 1174.21818,199.736129 Z M1093.61758,199.736129 C1093.61758,209.573043 1095.91367,217.235061 1100.50584,222.702229 C1105.07822,228.229258 1111.47164,230.942889 1119.70589,230.942889 C1127.86096,230.942889 1134.29396,228.229258 1138.94552,222.702229 C1143.57728,217.235061 1145.93275,209.573043 1145.93275,199.736129 C1145.93275,189.919169 1143.61687,182.277105 1138.98511,176.829889 C1134.37314,171.342767 1127.92034,168.609183 1119.70589,168.609183 C1111.55082,168.609183 1105.1574,171.36272 1100.56522,176.849842 C1095.91367,182.356917 1093.61758,189.979029 1093.61758,199.736129 Z M1189.46777,148.363636 L1240.33401,148.363636 C1255.69657,148.363636 1266.69521,151.252241 1273.2707,157.049234 C1279.84618,162.866013 1283.1438,172.481504 1283.1438,185.895708 L1283.1438,250.909091 L1256.052,250.909091 L1256.052,189.219581 C1256.052,181.562801 1254.86723,176.596776 1252.49768,174.321506 C1250.10839,172.02645 1245.38904,170.898707 1238.26066,170.898707 L1216.55957,170.898707 L1216.55957,250.909091 L1189.46777,250.909091 L1189.46777,148.363636 Z M0,100.363636 L0,34.9090909 L65.3553719,34.9090909 L65.3553719,100.363636 L0,100.363636 Z M217.218526,91.6363636 L167.745455,49.5481439 L209.769904,0 L259.242975,42.1080073 L217.218526,91.6363636 Z M76.2479339,100.363636 L76.2479339,34.9090909 L141.603306,34.9090909 L141.603306,100.363636 L76.2479339,100.363636 Z M0,176.727273 L0,111.272727 L65.3553719,111.272727 L65.3553719,176.727273 L0,176.727273 Z M76.2479339,176.727273 L76.2479339,111.272727 L141.603306,111.272727 L141.603306,176.727273 L76.2479339,176.727273 Z M152.495868,176.727273 L152.495868,111.272727 L217.85124,111.272727 L217.85124,176.727273 L152.495868,176.727273 Z M0,250.909091 L0,187.636364 L65.3553719,187.636364 L65.3553719,250.909091 L0,250.909091 Z M76.2479339,250.909091 L76.2479339,187.636364 L141.603306,187.636364 L141.603306,250.909091 L76.2479339,250.909091 Z M152.495868,250.909091 L152.495868,187.636364 L217.85124,187.636364 L217.85124,250.909091 L152.495868,250.909091 Z M1315.82149,142.860361 C1315.82149,151.943689 1308.52302,159.272727 1299.49238,159.272727 C1290.38388,159.272727 1283.1438,151.943689 1283.1438,142.7629 C1283.1438,133.75754 1290.53959,126.545455 1299.74539,126.545455 C1308.52302,126.545455 1315.82149,133.991445 1315.82149,142.860361 Z M1289.3329,133.75754 C1287.09471,136.233039 1285.81018,139.507716 1285.81018,142.7629 C1285.81018,150.48178 1291.8825,156.602307 1299.49238,156.602307 C1307.00494,156.602307 1313.15511,150.423304 1313.15511,142.860361 C1313.15511,135.453354 1307.00494,129.176891 1299.70646,129.176891 C1295.52201,129.176891 1292.0382,130.716769 1289.3329,133.75754 Z M1298.88904,141.690833 C1300.97153,141.690833 1302.06144,140.716227 1302.06144,138.942444 C1302.06144,137.032216 1301.01046,136.194055 1298.65548,136.194055 L1298.03268,136.194055 L1298.03268,141.690833 L1298.88904,141.690833 Z M1306.24589,152.567437 L1302.93725,152.567437 L1298.03268,145.394336 L1298.03268,152.567437 L1295.32738,152.567437 L1295.32738,133.562618 L1298.55817,133.562618 C1302.64532,133.562618 1304.82513,135.453354 1304.82513,138.981428 C1304.82513,141.827278 1303.20973,143.698522 1300.44604,144.166333 L1306.24589,152.567437 Z" id="Combined-Shape"></path>
        </g>
    </g>
</svg>